<svg width="18" height="25" viewBox="0 0 18 25" fill="none" xmlns="http://www.w3.org/2000/svg">
<path d="M13.2285 20.8394L12.8819 22.339C12.6145 23.487 11.6308 24.3177 10.4681 24.4071L10.2617 24.4147H7.73735C6.55478 24.4147 5.51993 23.6462 5.17086 22.5364L5.11722 22.3373L4.77062 20.8394H13.2285ZM8.99996 0.584717C13.7855 0.584717 17.665 4.45284 17.665 9.22309C17.665 11.7695 16.5468 14.1014 14.3599 16.1832C14.3179 16.223 14.2883 16.2749 14.2749 16.3321L13.6444 19.0521H9.89617V11.0095C9.89617 10.5159 9.4951 10.1159 8.99996 10.1159C8.50482 10.1159 8.10375 10.5159 8.10375 11.0095V19.0521H4.35552L3.72669 16.3321C3.71325 16.2749 3.68367 16.223 3.64169 16.1832C1.45398 14.1014 0.334961 11.7695 0.334961 9.22394C0.334961 4.45284 4.21441 0.584717 8.99996 0.584717ZM8.10375 6.24434V8.03159C8.10375 8.52521 8.50482 8.92522 8.99996 8.92522C9.4951 8.92522 9.89617 8.52521 9.89617 8.03159V6.24434C9.89617 5.75072 9.4951 5.35072 8.99996 5.35072C8.50482 5.35072 8.10375 5.75072 8.10375 6.24434ZM14.1156 7.99074C13.9448 7.82279 13.7178 7.7291 13.4818 7.7291C13.2458 7.7291 13.0189 7.82279 12.848 7.99074L11.5805 9.25458C11.4976 9.33613 11.4316 9.43418 11.3865 9.5428C11.3414 9.65142 11.3181 9.76834 11.3181 9.8865C11.3181 10.0047 11.3414 10.1216 11.3865 10.2302C11.4316 10.3388 11.4976 10.4369 11.5805 10.5184C11.9304 10.8674 12.4981 10.8674 12.848 10.5184L14.1156 9.25458C14.1985 9.17304 14.2645 9.07499 14.3096 8.96637C14.3547 8.85775 14.378 8.74082 14.378 8.62266C14.378 8.5045 14.3547 8.38757 14.3096 8.27895C14.2645 8.17033 14.1985 8.07228 14.1156 7.99074ZM5.15188 7.99074C4.98106 7.82279 4.7541 7.7291 4.51809 7.7291C4.28208 7.7291 4.05513 7.82279 3.88431 7.99074C3.8014 8.07228 3.73539 8.17033 3.6903 8.27895C3.6452 8.38757 3.62195 8.5045 3.62195 8.62266C3.62195 8.74082 3.6452 8.85775 3.6903 8.96637C3.73539 9.07499 3.8014 9.17304 3.88431 9.25458L5.15188 10.5184C5.50178 10.8674 6.06954 10.8674 6.41944 10.5184C6.50236 10.4369 6.56836 10.3388 6.61346 10.2302C6.65855 10.1216 6.68181 10.0047 6.68181 9.8865C6.68181 9.76834 6.65855 9.65142 6.61346 9.5428C6.56836 9.43418 6.50236 9.33613 6.41944 9.25458L5.15188 7.99074Z" fill="white"/>
</svg>
