<svg width="24" height="23" viewBox="0 0 24 23" fill="none" xmlns="http://www.w3.org/2000/svg">
<path d="M23.0529 16.195H7.12161L7.92152 14.5342L21.2124 14.5096C21.6618 14.5096 22.047 14.1824 22.1273 13.7297L23.9679 3.22737C24.0161 2.95193 23.9438 2.6683 23.7673 2.45286C23.68 2.34683 23.5711 2.26142 23.4483 2.20255C23.3254 2.14369 23.1914 2.11277 23.0556 2.11196L6.14781 2.05469L6.00334 1.36199C5.91238 0.920194 5.52179 0.598389 5.07769 0.598389H0.944376C0.693912 0.598389 0.453706 0.699814 0.276601 0.880353C0.0994965 1.06089 0 1.30576 0 1.56108C0 1.8164 0.0994965 2.06126 0.276601 2.2418C0.453706 2.42234 0.693912 2.52376 0.944376 2.52376H4.31256L4.94393 5.58364L6.49827 13.2551L4.49716 16.585C4.39324 16.728 4.33064 16.8978 4.31646 17.0751C4.30228 17.2525 4.33707 17.4303 4.4169 17.5886C4.57742 17.9131 4.90113 18.1177 5.25961 18.1177H6.93969C6.58152 18.6026 6.38806 19.1933 6.38859 19.8003C6.38859 21.3439 7.61922 22.5984 9.13343 22.5984C10.6476 22.5984 11.8783 21.3439 11.8783 19.8003C11.8783 19.1922 11.6803 18.6004 11.3272 18.1177H15.6371C15.2789 18.6026 15.0854 19.1933 15.0859 19.8003C15.0859 21.3439 16.3166 22.5984 17.8308 22.5984C19.345 22.5984 20.5756 21.3439 20.5756 19.8003C20.5756 19.1922 20.3777 18.6004 20.0245 18.1177H23.0556C23.5746 18.1177 24 17.6868 24 17.155C23.9984 16.8999 23.898 16.6558 23.7206 16.476C23.5432 16.2962 23.3032 16.1952 23.0529 16.195ZM6.54108 3.9528L21.9454 4.00461L20.4365 12.617L8.33619 12.6388L6.54108 3.9528ZM9.13343 20.6621C8.66793 20.6621 8.28804 20.2748 8.28804 19.8003C8.28804 19.3258 8.66793 18.9385 9.13343 18.9385C9.59893 18.9385 9.97882 19.3258 9.97882 19.8003C9.97882 20.0289 9.88975 20.2481 9.73121 20.4097C9.57267 20.5713 9.35764 20.6621 9.13343 20.6621ZM17.8308 20.6621C17.3653 20.6621 16.9854 20.2748 16.9854 19.8003C16.9854 19.3258 17.3653 18.9385 17.8308 18.9385C18.2963 18.9385 18.6762 19.3258 18.6762 19.8003C18.6762 20.0289 18.5871 20.2481 18.4286 20.4097C18.27 20.5713 18.055 20.6621 17.8308 20.6621Z" fill="white"/>
</svg>
