<svg width="38" height="24" viewBox="0 0 38 24" fill="none" xmlns="http://www.w3.org/2000/svg">
<g clip-path="url(#clip0_231_3139)">
<path opacity="0.07" d="M35 0H3C1.3 0 0 1.3 0 3V21C0 22.7 1.4 24 3 24H35C36.7 24 38 22.7 38 21V3C38 1.3 36.6 0 35 0Z" fill="white"/>
<path d="M35 1C36.1 1 37 1.9 37 3V21C37 22.1 36.1 23 35 23H3C1.9 23 1 22.1 1 21V3C1 1.9 1.9 1 3 1H35Z" fill="white"/>
<path d="M18.0932 11.9757V15.1757H17.0752V7.27574H19.7662C20.0886 7.27028 20.409 7.32861 20.7088 7.44737C21.0086 7.56613 21.282 7.74297 21.5132 7.96774C21.7322 8.17214 21.9088 8.41769 22.0329 8.69038C22.157 8.96306 22.2261 9.25753 22.2363 9.55694C22.2466 9.85636 22.1977 10.1549 22.0925 10.4354C21.9872 10.7159 21.8278 10.9729 21.6232 11.1917L21.5132 11.3077C21.0432 11.7547 20.4152 11.9977 19.7662 11.9817L18.0932 11.9757ZM18.0932 8.24374V11.0317H19.7912C20.1682 11.0437 20.5322 10.8967 20.7962 10.6277C20.985 10.4309 21.1118 10.1829 21.1608 9.91458C21.2098 9.64624 21.1788 9.36943 21.0717 9.11857C20.9646 8.86771 20.7861 8.65387 20.5585 8.50366C20.3308 8.35345 20.064 8.2735 19.7912 8.27374L18.0932 8.24374ZM24.5772 9.59174C25.2272 9.56174 25.8632 9.77974 26.3552 10.2047C26.8002 10.6347 27.0372 11.2347 27.0052 11.8537V15.1877H26.0362V14.4217H25.9872C25.8134 14.709 25.5677 14.946 25.2743 15.1093C24.9809 15.2726 24.6499 15.3565 24.3142 15.3527C23.7661 15.3705 23.2316 15.1801 22.8182 14.8197C22.6223 14.66 22.4654 14.4577 22.3592 14.2284C22.253 13.999 22.2003 13.7485 22.2052 13.4957C22.1937 13.2403 22.2433 12.9859 22.3499 12.7535C22.4565 12.5211 22.6171 12.3176 22.8182 12.1597C23.3116 11.8049 23.9088 11.6238 24.5162 11.6447C25.0332 11.6247 25.5462 11.7377 26.0062 11.9757V11.7677C26.0096 11.5958 25.9738 11.4253 25.9015 11.2692C25.8293 11.1131 25.7225 10.9755 25.5892 10.8667C25.3215 10.6234 24.9709 10.4917 24.6092 10.4987C24.3465 10.4963 24.0875 10.5608 23.8568 10.6863C23.626 10.8117 23.431 10.994 23.2902 11.2157L22.3952 10.6517C22.6382 10.3035 22.9663 10.0233 23.3483 9.83779C23.7302 9.65225 24.1533 9.56754 24.5772 9.59174ZM23.2902 13.5197C23.2878 13.6493 23.3173 13.7774 23.376 13.8928C23.4348 14.0083 23.5211 14.1075 23.6272 14.1817C23.8502 14.3577 24.1272 14.4507 24.4122 14.4447C24.8412 14.4437 25.2522 14.2747 25.5582 13.9727C25.8632 13.6867 26.0362 13.2877 26.0362 12.8697C25.6512 12.5961 25.1835 12.4639 24.7122 12.4957C24.3463 12.4813 23.9854 12.5844 23.6822 12.7897C23.5621 12.8701 23.4636 12.9786 23.3953 13.1059C23.3269 13.2332 23.2908 13.3753 23.2902 13.5197ZM32.5762 9.76974L29.1862 17.5597H28.1382L29.4192 14.8317L27.1952 9.76974H28.2982L29.9102 13.6547L31.4792 9.76974H32.5762Z" fill="#5F6368"/>
<path d="M13.986 11.2843C13.986 10.9763 13.962 10.6683 13.913 10.3643H9.62305V12.1113H12.074C12.0241 12.3889 11.9187 12.6536 11.7641 12.8895C11.6094 13.1255 11.4087 13.3277 11.174 13.4843V14.6183H12.638C13.0832 14.1875 13.4331 13.6683 13.6653 13.0941C13.8975 12.5198 14.0067 11.9033 13.986 11.2843Z" fill="#4285F4"/>
<path d="M9.62915 15.7209C10.7355 15.7513 11.8118 15.359 12.6391 14.6239L11.1731 13.4839C10.8209 13.7098 10.4218 13.8523 10.0062 13.9008C9.59055 13.9492 9.16936 13.9022 8.77463 13.7633C8.3799 13.6245 8.02204 13.3975 7.72824 13.0995C7.43444 12.8016 7.21245 12.4406 7.07915 12.0439H5.57715V13.2139C5.953 13.967 6.5312 14.6004 7.2469 15.0432C7.96261 15.486 8.78753 15.7207 9.62915 15.7209Z" fill="#34A853"/>
<path d="M7.07893 12.0495C6.88872 11.4868 6.88872 10.8772 7.07893 10.3145V9.14453H5.57693C5.25672 9.77599 5.08984 10.474 5.08984 11.182C5.08984 11.89 5.25672 12.5881 5.57693 13.2195L7.07893 12.0495Z" fill="#FBBC04"/>
<path d="M9.62915 8.44019C10.2762 8.42837 10.9016 8.6728 11.3691 9.12019L12.6691 7.82719C11.8402 7.0492 10.7408 6.62485 9.60415 6.64419C8.76752 6.64838 7.94839 6.88419 7.23758 7.32547C6.52677 7.76674 5.95206 8.39625 5.57715 9.14419L7.07915 10.3152C7.25477 9.77527 7.59524 9.304 8.05266 8.96766C8.51007 8.63132 9.06142 8.44685 9.62915 8.44019Z" fill="#EA4335"/>
</g>
<defs>
<clipPath id="clip0_231_3139">
<rect width="38" height="24" fill="white"/>
</clipPath>
</defs>
</svg>
