<svg width="24" height="21" viewBox="0 0 24 21" fill="none" xmlns="http://www.w3.org/2000/svg">
<path d="M23.0096 4.37714C22.6505 3.54581 22.1328 2.79247 21.4854 2.15928C20.8376 1.52421 20.0737 1.01953 19.2354 0.672675C18.3662 0.311585 17.4339 0.126759 16.4926 0.128925C15.1721 0.128925 13.8837 0.490532 12.764 1.17357C12.4962 1.33696 12.2417 1.51643 12.0006 1.71196C11.7596 1.51643 11.5051 1.33696 11.2372 1.17357C10.1176 0.490532 8.8292 0.128925 7.50866 0.128925C6.55777 0.128925 5.63634 0.311068 4.76581 0.672675C3.92473 1.02089 3.1667 1.52178 2.51581 2.15928C1.86758 2.79175 1.34977 3.54527 0.991699 4.37714C0.619378 5.24232 0.429199 6.16107 0.429199 7.1066C0.429199 7.99857 0.611342 8.92803 0.972949 9.87357C1.27563 10.6637 1.70956 11.4834 2.26402 12.3111C3.14259 13.6209 4.35063 14.987 5.85063 16.3718C8.33634 18.6673 10.7979 20.253 10.9024 20.3173L11.5372 20.7245C11.8185 20.9039 12.1801 20.9039 12.4613 20.7245L13.0962 20.3173C13.2006 20.2504 15.6596 18.6673 18.1479 16.3718C19.6479 14.987 20.856 13.6209 21.7346 12.3111C22.289 11.4834 22.7256 10.6637 23.0256 9.87357C23.3872 8.92803 23.5694 7.99857 23.5694 7.1066C23.5721 6.16107 23.3819 5.24232 23.0096 4.37714ZM12.0006 18.6057C12.0006 18.6057 2.46491 12.4959 2.46491 7.1066C2.46491 4.37714 4.72295 2.16464 7.50866 2.16464C9.4667 2.16464 11.1649 3.2575 12.0006 4.85392C12.8363 3.2575 14.5346 2.16464 16.4926 2.16464C19.2783 2.16464 21.5363 4.37714 21.5363 7.1066C21.5363 12.4959 12.0006 18.6057 12.0006 18.6057Z" fill="white"/>
</svg>
