<svg width="80" height="80" viewBox="0 0 80 80" fill="none" xmlns="http://www.w3.org/2000/svg">
<mask id="path-1-inside-1_231_1889" fill="white">
<path fill-rule="evenodd" clip-rule="evenodd" d="M29.9785 0.178505C26.8709 0.390398 21.3616 1.00794 18.5969 1.4543C16.0075 1.79672 17.0808 1.63426 16.436 1.72679C15.7911 1.81932 16.0964 1.79499 15.5147 1.91185C14.933 2.02872 15.0848 2.01816 14.5935 2.09691C14.1021 2.17566 14.118 2.25801 12.7764 2.53449C9.01974 3.30877 5.2319 4.51055 4.48089 5.1664C3.85094 5.71658 3.87084 6.1844 4.53875 6.53139C4.83558 6.68554 5.1289 6.95851 5.19044 7.13764C5.25198 7.31696 5.5689 7.76555 5.89447 8.13474C6.37481 8.67937 6.69504 8.84777 7.59197 9.02709C8.2 9.14868 9.18114 9.38 9.7724 9.54119C11.0738 9.89594 11.1497 10.0453 11.34 12.6243C11.4714 14.4045 11.4609 14.4865 11.0542 14.8416C10.678 15.1701 10.6321 15.3761 10.6321 16.7389C10.6321 17.5798 10.7086 18.3152 10.8022 18.3731C10.8958 18.4312 11.0268 18.7284 11.0935 19.0334C11.1602 19.3384 11.3634 19.6678 11.5449 19.7653C11.8567 19.933 11.8826 20.8485 12.0125 36.3329L12.15 52.7228L11.5158 53.3415C11.1668 53.6818 10.7008 54.0177 10.4803 54.088C10.2596 54.1583 9.98576 54.3976 9.8719 54.6199C9.75803 54.8419 9.50505 55.2002 9.30956 55.4162C8.97588 55.7848 8.95377 56.1438 8.94511 61.334C8.93774 65.7532 8.88431 66.9331 8.6785 67.2285C8.537 67.4315 8.4211 67.7413 8.4211 67.9169C8.4211 68.5215 7.6419 69.1207 6.67072 69.2626C4.84718 69.5293 0.969248 70.479 0.732301 70.7168C0.368957 71.082 -0.174584 74.1256 0.0546247 74.5118C0.580109 75.3968 4.3825 76.6052 10.6321 77.8736C15.9465 78.9523 17.5821 79.1455 23.1612 79.3541C25.948 79.4583 29.5133 79.6476 31.084 79.7751C35.3468 80.1206 49.5178 80.0532 52.2729 79.6742C53.4383 79.5138 55.1795 79.331 56.1422 79.2677C60.2303 78.9991 67.5726 77.8497 71.1586 76.917C73.035 76.4289 77.6039 74.7985 78.923 74.1463C79.1397 74.0392 79.4171 73.7316 79.5393 73.4629C79.7632 72.971 80.1088 69.2658 79.9668 68.8822C79.871 68.6235 77.8921 68.1727 75.0532 67.7626C73.8509 67.589 72.7611 67.3401 72.6314 67.2098C72.4521 67.0297 72.39 65.7573 72.3732 61.9234C72.3452 55.4739 72.2406 54.6286 71.2427 52.8015C70.9692 52.3009 70.9285 50.6685 70.8388 36.5727C70.7446 21.8058 70.7575 20.8836 71.0613 20.6073C71.2388 20.4461 71.5354 19.9767 71.7206 19.5643C72.0169 18.9044 72.0272 18.7442 71.8065 18.2282C71.6685 17.9057 71.5216 17.0794 71.4802 16.3923L71.4048 15.1425L72.5379 13.9865C73.1611 13.3504 73.8014 12.5804 73.9607 12.2751C74.1203 11.9697 74.4503 11.4797 74.694 11.1862C75.3789 10.3623 75.907 9.20216 75.9506 8.42547C75.9842 7.82699 75.9011 7.65266 75.3996 7.26829C75.0747 7.01939 74.7338 6.81546 74.6421 6.8149C74.5503 6.81453 73.8119 6.55286 73.0012 6.23344C71.0418 5.46138 65.0717 3.44331 62.6593 2.7375C58.2843 1.45745 52.8833 0.561576 47.1452 0.164255C43.8887 -0.0613318 33.3674 -0.0526334 29.9785 0.178505ZM46.7454 0.711844C55.0265 1.28331 59.1766 2.15123 68.487 5.25837C73.6374 6.97701 74.348 7.26163 74.7976 7.78498C75.5661 8.67955 75.4305 9.2958 74.1179 10.8736C73.757 11.3074 73.4618 11.7669 73.4618 11.8946C73.4618 12.0225 72.902 12.6863 72.2181 13.3699L70.9744 14.6127L70.9103 16.1524C70.8603 17.3523 70.9132 17.7948 71.1503 18.1583C71.4197 18.5713 71.4247 18.6953 71.1938 19.2435C71.0505 19.584 70.7603 20.0172 70.549 20.2061L70.165 20.5496L70.2772 36.4843L70.3896 52.4188L71.0505 53.8137L71.7114 55.2087L71.7411 61.5933L71.7707 67.9778L72.2017 68.1023C72.706 68.248 75.4646 68.7038 77.7007 69.011L79.2681 69.2264L79.2309 70.9232C79.1745 73.4831 79.2307 73.4115 76.4092 74.5198C75.0749 75.0439 73.9248 75.4727 73.8535 75.4727C73.782 75.4727 72.649 75.7973 71.3357 76.1938C68.1933 77.1428 60.3298 78.4231 55.8658 78.7125C54.8524 78.7782 53.1112 78.9618 51.9965 79.1205C49.3711 79.4944 35.4487 79.5643 31.4525 79.2238C29.9831 79.0985 26.4178 78.9062 23.5297 78.7967C20.6416 78.687 17.7811 78.5156 17.173 78.4158C16.565 78.3161 15.2384 78.114 14.225 77.9671C11.8159 77.6177 9.34715 77.0925 5.87199 76.1905C2.77049 75.3855 1.7759 75.0398 0.992463 74.4952C0.432708 74.1058 0.422943 73.8205 0.901443 71.8333C1.08551 71.0688 1.09749 71.0598 2.31281 70.7707C4.94023 70.1459 7.0488 69.7358 7.63398 69.7358C8.10788 69.7358 8.28328 69.637 8.41152 69.2984C8.50254 69.0578 8.71388 68.8083 8.88081 68.7439C9.06377 68.6734 9.16474 68.461 9.13471 68.2098C9.10725 67.9804 9.18409 67.6108 9.30569 67.3886C9.46323 67.1001 9.52661 65.4236 9.52661 61.5355C9.52661 56.816 9.5653 56.0546 9.81515 55.8462C9.97379 55.7139 10.2247 55.3706 10.3727 55.0834C10.5205 54.796 10.7736 54.561 10.9348 54.561C11.0962 54.561 11.5604 54.2274 11.9665 53.8197L12.7046 53.0781L12.6841 49.8872C12.6729 48.1321 12.6084 40.5432 12.5408 33.0231C12.426 20.2324 12.3972 19.3449 12.0965 19.2658C11.642 19.1465 11.1849 17.8122 11.1849 16.6049C11.1849 15.7564 11.2602 15.5145 11.6236 15.1973C12.042 14.8318 12.0577 14.735 11.9644 13.0934C11.9108 12.1468 11.7741 10.953 11.6608 10.4404C11.4636 9.54859 11.415 9.49344 10.5367 9.16404C10.0318 8.97454 9.00481 8.70084 8.25436 8.55556C7.06391 8.32517 6.81241 8.2034 6.28121 7.59992C5.94661 7.21962 5.66931 6.8112 5.66507 6.69239C5.66084 6.57377 5.42923 6.30932 5.15064 6.10483L4.64395 5.73305L5.10458 5.55613C5.35793 5.45897 5.89686 5.24005 6.30221 5.0698C7.96471 4.37157 12.9266 3.07116 16.2299 2.46805C21.2214 1.55682 24.9092 1.12582 31.821 0.645964C33.9176 0.500508 44.3495 0.546587 46.7454 0.711844ZM37.6807 12.3045C37.0241 12.3857 36.9953 12.4203 36.8857 13.2572C36.665 14.9434 36.574 15.1585 35.7535 15.9309C35.0771 16.5677 34.9461 16.7942 35.0338 17.1756C35.1832 17.8257 35.8808 54.0029 35.7537 54.5148C35.658 54.9004 35.8143 55.0283 36.2891 54.953C36.365 54.9409 36.4273 55.056 36.4273 55.2087C36.4273 55.3614 36.5517 55.4863 36.7037 55.4863C36.8557 55.4863 36.98 55.6366 36.98 55.8203C36.98 56.0039 37.2607 56.4619 37.6037 56.8382L38.2274 57.522L40.8742 57.5519C45.0729 57.5997 52.3167 57.5105 52.8717 57.4044C53.4421 57.2953 53.5103 57.0499 53.0976 56.5917C52.721 56.1736 52.8837 55.8511 53.739 55.3198C54.5758 54.7999 54.6061 54.6448 54.7658 50.0271C54.8185 48.5003 55.1537 40.3418 55.5104 31.8969C55.8671 23.4521 56.1344 16.3319 56.1044 16.0743C56.0545 15.6437 55.9767 15.6061 55.1356 15.6061H54.2213L54.0301 14.4958C53.8563 13.4865 53.7803 13.3565 53.1927 13.0677C52.8371 12.893 51.8421 12.6604 50.9817 12.551C49.3774 12.347 38.9049 12.1529 37.6807 12.3045ZM25.925 13.2949C24.7596 13.4837 23.433 13.7318 22.9769 13.8462C22.5209 13.9608 21.6089 14.169 20.9502 14.3089C20.2915 14.4489 19.4209 14.6827 19.0155 14.8283C18.29 15.0891 18.2785 15.1074 18.2785 16.0123C18.2785 17.0664 18.0094 17.4889 17.204 17.6984L16.6367 17.8461L16.6844 21.26C16.7107 23.1376 16.8513 30.8365 16.9969 38.3684C17.1425 45.9003 17.2624 52.4167 17.2633 52.8492C17.2646 53.3822 17.3448 53.6357 17.5119 53.6357C17.6477 53.6357 17.8507 53.8384 17.9629 54.086C18.1083 54.4065 18.3425 54.5531 18.7757 54.5949C19.2967 54.645 19.377 54.7178 19.3347 55.1008C19.3061 55.3594 19.4531 55.7273 19.6827 55.9728C19.9014 56.2066 20.1743 56.5882 20.2893 56.8211C20.4643 57.1753 20.7379 57.2801 21.968 57.4637C24.6888 57.8697 28.1117 57.688 28.2976 57.1276C28.3422 56.9932 28.6558 56.6368 28.9944 56.3357C29.3344 56.0335 29.61 55.6092 29.61 55.3884C29.61 54.9389 30.1395 54.376 30.5622 54.376C30.806 54.376 30.8561 53.0445 30.9644 43.6888C31.1332 29.103 31.119 15.722 30.934 15.0509C30.85 14.7456 30.7041 14.4917 30.6101 14.4867C30.0163 14.4551 29.5989 14.1342 29.4633 13.6049C29.3329 13.0954 29.226 13.011 28.678 12.9835C28.3293 12.9659 27.0904 13.106 25.925 13.2949ZM50.7068 13.2846C53.2509 13.5856 53.3784 13.6264 53.3784 14.1368C53.3784 14.4484 53.2544 14.6075 52.9638 14.669C52.2064 14.8292 49.9841 15.1416 48.9449 15.234C46.5639 15.4453 44.6045 15.9614 44.3468 16.4452C44.0921 16.923 44.3976 17.5078 44.978 17.654C45.2163 17.7141 45.6878 18.0498 46.0259 18.4001C46.3638 18.7503 46.9454 19.1195 47.3184 19.2203C47.8695 19.3693 48.0521 19.5427 48.2923 20.1458C48.7126 21.2008 48.6761 21.3996 47.84 22.6093C47.409 23.233 47.1166 23.8549 47.1494 24.0787C47.1831 24.3102 47.5402 24.6627 48.0351 24.9529L48.8642 25.439V28.6652C48.8642 34.0556 48.5615 46.2508 48.3966 47.5025C48.263 48.5159 48.1123 48.8481 47.3092 49.8985L46.3769 51.118V54.0425V56.9668H42.4565H38.536L38.0725 56.436C37.8175 56.1442 37.6371 55.82 37.6715 55.7158C37.7062 55.6114 37.4401 55.2465 37.0805 54.9049L36.4262 54.2834L36.0767 35.6128L35.7269 16.9422L36.1962 16.5055C36.4542 16.2653 36.7381 16.0688 36.8273 16.0688C37.0628 16.0688 37.3703 15.1888 37.5064 14.1257C37.6188 13.2475 37.6579 13.1939 38.2698 13.0725C39.1955 12.8891 48.7395 13.0519 50.7068 13.2846ZM28.7643 14.1255C28.8293 14.3855 29.1945 14.7874 29.5982 15.0434C30.15 15.3935 30.2936 15.5863 30.2178 15.8772C30.1637 16.0854 30.2252 16.3841 30.3547 16.5407C30.5443 16.7701 30.5646 20.4025 30.4592 35.18L30.3282 53.5341L29.6927 54.1189C29.3432 54.4404 29.0572 54.861 29.0572 55.0536C29.0572 55.2463 28.8291 55.6133 28.5505 55.8692C28.2718 56.1249 27.9609 56.4832 27.8596 56.6649C27.602 57.127 25.1437 57.2768 22.7815 56.9744C21.0038 56.7469 20.9548 56.7275 20.5944 56.114C20.3915 55.7687 20.1515 55.4863 20.0606 55.4863C19.97 55.4863 19.9379 55.2652 19.9893 54.9948C20.0971 54.4283 19.6636 54.0058 18.9745 54.0058C18.7327 54.0058 18.4902 53.8635 18.4224 53.682C18.3557 53.504 18.1964 53.2749 18.0679 53.1731C17.8874 53.03 17.7687 49.6136 17.5445 38.0908C17.3851 29.8973 17.2644 22.0958 17.2764 20.7539L17.2981 18.3141L17.8207 18.1313C18.5848 17.8637 18.9914 17.1404 18.8737 16.2586C18.7766 15.5314 18.7771 15.5306 19.633 15.2528C20.4453 14.9891 24.6223 14.2289 27.2147 13.873C27.8734 13.7827 28.4656 13.6983 28.5306 13.6858C28.5955 13.6734 28.7007 13.8712 28.7643 14.1255ZM62.0992 14.8196C62.0065 14.9469 61.8125 15.2876 61.6679 15.5771C61.4324 16.048 61.3349 16.0919 60.7368 15.9959L60.0687 15.8885L59.9477 25.5554C59.881 30.8722 59.7725 39.4772 59.7065 44.6776L59.5867 54.133L60.0076 54.2435C60.3112 54.3232 60.4028 54.4531 60.3363 54.7089C60.2123 55.1852 60.5054 55.6714 60.917 55.6714C61.1009 55.6714 61.4733 55.8466 61.7443 56.0607C62.1362 56.3703 62.377 56.4238 62.9208 56.3217C63.7753 56.1614 64.065 55.9264 64.065 55.3938C64.065 55.1643 64.1893 54.8728 64.3413 54.7461C64.4933 54.6193 64.6177 54.3017 64.6177 54.0403C64.6177 53.7271 64.8595 53.3383 65.3249 52.9023L66.032 52.24L66.4267 36.2363C66.8186 20.3536 66.8188 20.2289 66.4615 19.7377C66.1593 19.3225 66.1127 19.0116 66.1721 17.8057C66.2413 16.3947 66.2318 16.3575 65.6508 15.774C64.7688 14.8881 62.4942 14.2768 62.0992 14.8196ZM53.5626 15.4766C53.5626 16.0153 53.9501 16.2538 54.825 16.2538H55.6451L55.526 18.0582C55.4606 19.0506 55.4066 20.418 55.4061 21.097C55.4052 22.3114 55.3965 22.3332 54.8649 22.4505C54.2092 22.5952 52.8256 24.0502 52.8256 24.595C52.8256 24.8106 52.6471 25.239 52.4288 25.5467C52.0982 26.0131 52.0072 26.4972 51.8847 28.4438C51.5095 34.3998 51.8779 48.6623 52.4337 49.7054C52.5445 49.9134 52.9683 50.3485 53.3753 50.6724C54.0642 51.2203 54.1154 51.3258 54.1154 52.1956C54.1154 53.6217 53.7718 54.5421 53.0685 54.9992C52.4651 55.3914 52.0877 56.3311 52.3576 56.7697C52.4413 56.9057 51.6197 56.9668 49.7042 56.9668H46.9296V54.1741V51.3813L47.5736 50.6257C49.0072 48.9436 49.0046 48.958 49.1773 41.6187C49.2624 37.999 49.3982 32.8721 49.4791 30.2258C49.6051 26.1073 49.5872 25.3676 49.3549 25.0904C49.2057 24.9122 49.0102 24.7665 48.9204 24.7665C48.8305 24.7665 48.5201 24.5905 48.2302 24.3753L47.7035 23.9841L48.4477 22.8948C49.1449 21.8744 49.1848 21.7454 49.08 20.8568C48.9392 19.6628 48.5589 19.0747 47.6983 18.7199C47.3261 18.5665 46.773 18.2084 46.469 17.9242C46.165 17.6399 45.6675 17.2794 45.3635 17.1231L44.8107 16.8386L45.3635 16.6252C45.6675 16.5077 47.1185 16.2137 48.5879 15.9714C50.0573 15.7294 51.7155 15.4538 52.2729 15.3593C52.8302 15.2647 53.3484 15.1775 53.4245 15.1655C53.5006 15.1533 53.5626 15.2934 53.5626 15.4766ZM63.7844 15.4105C64.7323 15.6972 65.7875 16.5547 65.5889 16.8775C65.5224 16.9857 65.4879 17.659 65.5123 18.3735C65.5462 19.3649 65.642 19.7637 65.9163 20.057C66.4449 20.6221 66.414 22.0969 65.8614 22.6874L65.4469 23.1304L65.3547 37.6483L65.2626 52.1662L64.6638 52.6368C64.2419 52.9684 64.065 53.2608 64.065 53.6265C64.065 53.912 63.9406 54.2492 63.7886 54.376C63.6366 54.5027 63.5122 54.8064 63.5122 55.0509C63.5122 55.6173 62.6173 56.0426 62.3676 55.5948C62.2823 55.4415 61.9245 55.2618 61.5726 55.1956C61.0182 55.091 60.9327 55.0039 60.9327 54.542C60.9327 54.2094 60.7941 53.922 60.5642 53.7778C60.1192 53.4988 60.0444 52.1416 60.4551 51.7992C61.5042 50.9248 61.6428 48.8173 61.6609 33.4643L61.6738 22.6384L61.119 22.6854L60.5642 22.7324V19.6782V16.6239H61.2227C61.8164 16.6239 61.9118 16.5512 62.19 15.8856C62.5386 15.0521 62.5687 15.043 63.7844 15.4105ZM54.693 37.7747C54.4006 44.573 54.1069 50.1899 54.0402 50.2567C53.9737 50.3235 53.6647 50.1226 53.3537 49.81L52.7881 49.2419L52.5137 45.1931C52.312 42.2141 52.264 39.2487 52.3324 33.9704L52.4254 26.7964L52.9019 25.9798C53.1639 25.5308 53.3784 24.9979 53.3784 24.7956C53.3784 24.5891 53.762 24.0883 54.2536 23.653L55.1288 22.8784L55.1767 24.1462C55.203 24.8437 54.9854 30.9764 54.693 37.7747ZM61.0757 33.017C61.1346 44.1544 60.9487 49.7747 60.4945 50.5974C60.2174 51.0991 60.2031 50.508 60.2919 42.2546C60.4455 27.9904 60.5765 23.2594 60.8157 23.3394C60.9671 23.3901 61.0388 26.0549 61.0757 33.017ZM66.0449 28.5969C66.0118 29.5945 65.9845 28.8286 65.9843 26.8947C65.9841 24.9608 66.0112 24.1446 66.0446 25.0808C66.0779 26.017 66.0781 27.5992 66.0449 28.5969ZM79.279 67.6539C79.3705 67.7304 79.5076 67.876 79.5832 67.9778C79.6616 68.0835 79.7219 68.0239 79.7236 67.839C79.725 67.6589 79.59 67.5151 79.4192 67.5151C79.2504 67.5151 79.1872 67.5775 79.279 67.6539ZM77.2389 73.437C76.8837 73.5904 76.885 73.5965 77.2741 73.6091C77.4961 73.6162 77.729 73.5388 77.7917 73.437C77.9264 73.2181 77.746 73.2181 77.2389 73.437Z"/>
</mask>
<path fill-rule="evenodd" clip-rule="evenodd" d="M29.9785 0.178505C26.8709 0.390398 21.3616 1.00794 18.5969 1.4543C16.0075 1.79672 17.0808 1.63426 16.436 1.72679C15.7911 1.81932 16.0964 1.79499 15.5147 1.91185C14.933 2.02872 15.0848 2.01816 14.5935 2.09691C14.1021 2.17566 14.118 2.25801 12.7764 2.53449C9.01974 3.30877 5.2319 4.51055 4.48089 5.1664C3.85094 5.71658 3.87084 6.1844 4.53875 6.53139C4.83558 6.68554 5.1289 6.95851 5.19044 7.13764C5.25198 7.31696 5.5689 7.76555 5.89447 8.13474C6.37481 8.67937 6.69504 8.84777 7.59197 9.02709C8.2 9.14868 9.18114 9.38 9.7724 9.54119C11.0738 9.89594 11.1497 10.0453 11.34 12.6243C11.4714 14.4045 11.4609 14.4865 11.0542 14.8416C10.678 15.1701 10.6321 15.3761 10.6321 16.7389C10.6321 17.5798 10.7086 18.3152 10.8022 18.3731C10.8958 18.4312 11.0268 18.7284 11.0935 19.0334C11.1602 19.3384 11.3634 19.6678 11.5449 19.7653C11.8567 19.933 11.8826 20.8485 12.0125 36.3329L12.15 52.7228L11.5158 53.3415C11.1668 53.6818 10.7008 54.0177 10.4803 54.088C10.2596 54.1583 9.98576 54.3976 9.8719 54.6199C9.75803 54.8419 9.50505 55.2002 9.30956 55.4162C8.97588 55.7848 8.95377 56.1438 8.94511 61.334C8.93774 65.7532 8.88431 66.9331 8.6785 67.2285C8.537 67.4315 8.4211 67.7413 8.4211 67.9169C8.4211 68.5215 7.6419 69.1207 6.67072 69.2626C4.84718 69.5293 0.969248 70.479 0.732301 70.7168C0.368957 71.082 -0.174584 74.1256 0.0546247 74.5118C0.580109 75.3968 4.3825 76.6052 10.6321 77.8736C15.9465 78.9523 17.5821 79.1455 23.1612 79.3541C25.948 79.4583 29.5133 79.6476 31.084 79.7751C35.3468 80.1206 49.5178 80.0532 52.2729 79.6742C53.4383 79.5138 55.1795 79.331 56.1422 79.2677C60.2303 78.9991 67.5726 77.8497 71.1586 76.917C73.035 76.4289 77.6039 74.7985 78.923 74.1463C79.1397 74.0392 79.4171 73.7316 79.5393 73.4629C79.7632 72.971 80.1088 69.2658 79.9668 68.8822C79.871 68.6235 77.8921 68.1727 75.0532 67.7626C73.8509 67.589 72.7611 67.3401 72.6314 67.2098C72.4521 67.0297 72.39 65.7573 72.3732 61.9234C72.3452 55.4739 72.2406 54.6286 71.2427 52.8015C70.9692 52.3009 70.9285 50.6685 70.8388 36.5727C70.7446 21.8058 70.7575 20.8836 71.0613 20.6073C71.2388 20.4461 71.5354 19.9767 71.7206 19.5643C72.0169 18.9044 72.0272 18.7442 71.8065 18.2282C71.6685 17.9057 71.5216 17.0794 71.4802 16.3923L71.4048 15.1425L72.5379 13.9865C73.1611 13.3504 73.8014 12.5804 73.9607 12.2751C74.1203 11.9697 74.4503 11.4797 74.694 11.1862C75.3789 10.3623 75.907 9.20216 75.9506 8.42547C75.9842 7.82699 75.9011 7.65266 75.3996 7.26829C75.0747 7.01939 74.7338 6.81546 74.6421 6.8149C74.5503 6.81453 73.8119 6.55286 73.0012 6.23344C71.0418 5.46138 65.0717 3.44331 62.6593 2.7375C58.2843 1.45745 52.8833 0.561576 47.1452 0.164255C43.8887 -0.0613318 33.3674 -0.0526334 29.9785 0.178505ZM46.7454 0.711844C55.0265 1.28331 59.1766 2.15123 68.487 5.25837C73.6374 6.97701 74.348 7.26163 74.7976 7.78498C75.5661 8.67955 75.4305 9.2958 74.1179 10.8736C73.757 11.3074 73.4618 11.7669 73.4618 11.8946C73.4618 12.0225 72.902 12.6863 72.2181 13.3699L70.9744 14.6127L70.9103 16.1524C70.8603 17.3523 70.9132 17.7948 71.1503 18.1583C71.4197 18.5713 71.4247 18.6953 71.1938 19.2435C71.0505 19.584 70.7603 20.0172 70.549 20.2061L70.165 20.5496L70.2772 36.4843L70.3896 52.4188L71.0505 53.8137L71.7114 55.2087L71.7411 61.5933L71.7707 67.9778L72.2017 68.1023C72.706 68.248 75.4646 68.7038 77.7007 69.011L79.2681 69.2264L79.2309 70.9232C79.1745 73.4831 79.2307 73.4115 76.4092 74.5198C75.0749 75.0439 73.9248 75.4727 73.8535 75.4727C73.782 75.4727 72.649 75.7973 71.3357 76.1938C68.1933 77.1428 60.3298 78.4231 55.8658 78.7125C54.8524 78.7782 53.1112 78.9618 51.9965 79.1205C49.3711 79.4944 35.4487 79.5643 31.4525 79.2238C29.9831 79.0985 26.4178 78.9062 23.5297 78.7967C20.6416 78.687 17.7811 78.5156 17.173 78.4158C16.565 78.3161 15.2384 78.114 14.225 77.9671C11.8159 77.6177 9.34715 77.0925 5.87199 76.1905C2.77049 75.3855 1.7759 75.0398 0.992463 74.4952C0.432708 74.1058 0.422943 73.8205 0.901443 71.8333C1.08551 71.0688 1.09749 71.0598 2.31281 70.7707C4.94023 70.1459 7.0488 69.7358 7.63398 69.7358C8.10788 69.7358 8.28328 69.637 8.41152 69.2984C8.50254 69.0578 8.71388 68.8083 8.88081 68.7439C9.06377 68.6734 9.16474 68.461 9.13471 68.2098C9.10725 67.9804 9.18409 67.6108 9.30569 67.3886C9.46323 67.1001 9.52661 65.4236 9.52661 61.5355C9.52661 56.816 9.5653 56.0546 9.81515 55.8462C9.97379 55.7139 10.2247 55.3706 10.3727 55.0834C10.5205 54.796 10.7736 54.561 10.9348 54.561C11.0962 54.561 11.5604 54.2274 11.9665 53.8197L12.7046 53.0781L12.6841 49.8872C12.6729 48.1321 12.6084 40.5432 12.5408 33.0231C12.426 20.2324 12.3972 19.3449 12.0965 19.2658C11.642 19.1465 11.1849 17.8122 11.1849 16.6049C11.1849 15.7564 11.2602 15.5145 11.6236 15.1973C12.042 14.8318 12.0577 14.735 11.9644 13.0934C11.9108 12.1468 11.7741 10.953 11.6608 10.4404C11.4636 9.54859 11.415 9.49344 10.5367 9.16404C10.0318 8.97454 9.00481 8.70084 8.25436 8.55556C7.06391 8.32517 6.81241 8.2034 6.28121 7.59992C5.94661 7.21962 5.66931 6.8112 5.66507 6.69239C5.66084 6.57377 5.42923 6.30932 5.15064 6.10483L4.64395 5.73305L5.10458 5.55613C5.35793 5.45897 5.89686 5.24005 6.30221 5.0698C7.96471 4.37157 12.9266 3.07116 16.2299 2.46805C21.2214 1.55682 24.9092 1.12582 31.821 0.645964C33.9176 0.500508 44.3495 0.546587 46.7454 0.711844ZM37.6807 12.3045C37.0241 12.3857 36.9953 12.4203 36.8857 13.2572C36.665 14.9434 36.574 15.1585 35.7535 15.9309C35.0771 16.5677 34.9461 16.7942 35.0338 17.1756C35.1832 17.8257 35.8808 54.0029 35.7537 54.5148C35.658 54.9004 35.8143 55.0283 36.2891 54.953C36.365 54.9409 36.4273 55.056 36.4273 55.2087C36.4273 55.3614 36.5517 55.4863 36.7037 55.4863C36.8557 55.4863 36.98 55.6366 36.98 55.8203C36.98 56.0039 37.2607 56.4619 37.6037 56.8382L38.2274 57.522L40.8742 57.5519C45.0729 57.5997 52.3167 57.5105 52.8717 57.4044C53.4421 57.2953 53.5103 57.0499 53.0976 56.5917C52.721 56.1736 52.8837 55.8511 53.739 55.3198C54.5758 54.7999 54.6061 54.6448 54.7658 50.0271C54.8185 48.5003 55.1537 40.3418 55.5104 31.8969C55.8671 23.4521 56.1344 16.3319 56.1044 16.0743C56.0545 15.6437 55.9767 15.6061 55.1356 15.6061H54.2213L54.0301 14.4958C53.8563 13.4865 53.7803 13.3565 53.1927 13.0677C52.8371 12.893 51.8421 12.6604 50.9817 12.551C49.3774 12.347 38.9049 12.1529 37.6807 12.3045ZM25.925 13.2949C24.7596 13.4837 23.433 13.7318 22.9769 13.8462C22.5209 13.9608 21.6089 14.169 20.9502 14.3089C20.2915 14.4489 19.4209 14.6827 19.0155 14.8283C18.29 15.0891 18.2785 15.1074 18.2785 16.0123C18.2785 17.0664 18.0094 17.4889 17.204 17.6984L16.6367 17.8461L16.6844 21.26C16.7107 23.1376 16.8513 30.8365 16.9969 38.3684C17.1425 45.9003 17.2624 52.4167 17.2633 52.8492C17.2646 53.3822 17.3448 53.6357 17.5119 53.6357C17.6477 53.6357 17.8507 53.8384 17.9629 54.086C18.1083 54.4065 18.3425 54.5531 18.7757 54.5949C19.2967 54.645 19.377 54.7178 19.3347 55.1008C19.3061 55.3594 19.4531 55.7273 19.6827 55.9728C19.9014 56.2066 20.1743 56.5882 20.2893 56.8211C20.4643 57.1753 20.7379 57.2801 21.968 57.4637C24.6888 57.8697 28.1117 57.688 28.2976 57.1276C28.3422 56.9932 28.6558 56.6368 28.9944 56.3357C29.3344 56.0335 29.61 55.6092 29.61 55.3884C29.61 54.9389 30.1395 54.376 30.5622 54.376C30.806 54.376 30.8561 53.0445 30.9644 43.6888C31.1332 29.103 31.119 15.722 30.934 15.0509C30.85 14.7456 30.7041 14.4917 30.6101 14.4867C30.0163 14.4551 29.5989 14.1342 29.4633 13.6049C29.3329 13.0954 29.226 13.011 28.678 12.9835C28.3293 12.9659 27.0904 13.106 25.925 13.2949ZM50.7068 13.2846C53.2509 13.5856 53.3784 13.6264 53.3784 14.1368C53.3784 14.4484 53.2544 14.6075 52.9638 14.669C52.2064 14.8292 49.9841 15.1416 48.9449 15.234C46.5639 15.4453 44.6045 15.9614 44.3468 16.4452C44.0921 16.923 44.3976 17.5078 44.978 17.654C45.2163 17.7141 45.6878 18.0498 46.0259 18.4001C46.3638 18.7503 46.9454 19.1195 47.3184 19.2203C47.8695 19.3693 48.0521 19.5427 48.2923 20.1458C48.7126 21.2008 48.6761 21.3996 47.84 22.6093C47.409 23.233 47.1166 23.8549 47.1494 24.0787C47.1831 24.3102 47.5402 24.6627 48.0351 24.9529L48.8642 25.439V28.6652C48.8642 34.0556 48.5615 46.2508 48.3966 47.5025C48.263 48.5159 48.1123 48.8481 47.3092 49.8985L46.3769 51.118V54.0425V56.9668H42.4565H38.536L38.0725 56.436C37.8175 56.1442 37.6371 55.82 37.6715 55.7158C37.7062 55.6114 37.4401 55.2465 37.0805 54.9049L36.4262 54.2834L36.0767 35.6128L35.7269 16.9422L36.1962 16.5055C36.4542 16.2653 36.7381 16.0688 36.8273 16.0688C37.0628 16.0688 37.3703 15.1888 37.5064 14.1257C37.6188 13.2475 37.6579 13.1939 38.2698 13.0725C39.1955 12.8891 48.7395 13.0519 50.7068 13.2846ZM28.7643 14.1255C28.8293 14.3855 29.1945 14.7874 29.5982 15.0434C30.15 15.3935 30.2936 15.5863 30.2178 15.8772C30.1637 16.0854 30.2252 16.3841 30.3547 16.5407C30.5443 16.7701 30.5646 20.4025 30.4592 35.18L30.3282 53.5341L29.6927 54.1189C29.3432 54.4404 29.0572 54.861 29.0572 55.0536C29.0572 55.2463 28.8291 55.6133 28.5505 55.8692C28.2718 56.1249 27.9609 56.4832 27.8596 56.6649C27.602 57.127 25.1437 57.2768 22.7815 56.9744C21.0038 56.7469 20.9548 56.7275 20.5944 56.114C20.3915 55.7687 20.1515 55.4863 20.0606 55.4863C19.97 55.4863 19.9379 55.2652 19.9893 54.9948C20.0971 54.4283 19.6636 54.0058 18.9745 54.0058C18.7327 54.0058 18.4902 53.8635 18.4224 53.682C18.3557 53.504 18.1964 53.2749 18.0679 53.1731C17.8874 53.03 17.7687 49.6136 17.5445 38.0908C17.3851 29.8973 17.2644 22.0958 17.2764 20.7539L17.2981 18.3141L17.8207 18.1313C18.5848 17.8637 18.9914 17.1404 18.8737 16.2586C18.7766 15.5314 18.7771 15.5306 19.633 15.2528C20.4453 14.9891 24.6223 14.2289 27.2147 13.873C27.8734 13.7827 28.4656 13.6983 28.5306 13.6858C28.5955 13.6734 28.7007 13.8712 28.7643 14.1255ZM62.0992 14.8196C62.0065 14.9469 61.8125 15.2876 61.6679 15.5771C61.4324 16.048 61.3349 16.0919 60.7368 15.9959L60.0687 15.8885L59.9477 25.5554C59.881 30.8722 59.7725 39.4772 59.7065 44.6776L59.5867 54.133L60.0076 54.2435C60.3112 54.3232 60.4028 54.4531 60.3363 54.7089C60.2123 55.1852 60.5054 55.6714 60.917 55.6714C61.1009 55.6714 61.4733 55.8466 61.7443 56.0607C62.1362 56.3703 62.377 56.4238 62.9208 56.3217C63.7753 56.1614 64.065 55.9264 64.065 55.3938C64.065 55.1643 64.1893 54.8728 64.3413 54.7461C64.4933 54.6193 64.6177 54.3017 64.6177 54.0403C64.6177 53.7271 64.8595 53.3383 65.3249 52.9023L66.032 52.24L66.4267 36.2363C66.8186 20.3536 66.8188 20.2289 66.4615 19.7377C66.1593 19.3225 66.1127 19.0116 66.1721 17.8057C66.2413 16.3947 66.2318 16.3575 65.6508 15.774C64.7688 14.8881 62.4942 14.2768 62.0992 14.8196ZM53.5626 15.4766C53.5626 16.0153 53.9501 16.2538 54.825 16.2538H55.6451L55.526 18.0582C55.4606 19.0506 55.4066 20.418 55.4061 21.097C55.4052 22.3114 55.3965 22.3332 54.8649 22.4505C54.2092 22.5952 52.8256 24.0502 52.8256 24.595C52.8256 24.8106 52.6471 25.239 52.4288 25.5467C52.0982 26.0131 52.0072 26.4972 51.8847 28.4438C51.5095 34.3998 51.8779 48.6623 52.4337 49.7054C52.5445 49.9134 52.9683 50.3485 53.3753 50.6724C54.0642 51.2203 54.1154 51.3258 54.1154 52.1956C54.1154 53.6217 53.7718 54.5421 53.0685 54.9992C52.4651 55.3914 52.0877 56.3311 52.3576 56.7697C52.4413 56.9057 51.6197 56.9668 49.7042 56.9668H46.9296V54.1741V51.3813L47.5736 50.6257C49.0072 48.9436 49.0046 48.958 49.1773 41.6187C49.2624 37.999 49.3982 32.8721 49.4791 30.2258C49.6051 26.1073 49.5872 25.3676 49.3549 25.0904C49.2057 24.9122 49.0102 24.7665 48.9204 24.7665C48.8305 24.7665 48.5201 24.5905 48.2302 24.3753L47.7035 23.9841L48.4477 22.8948C49.1449 21.8744 49.1848 21.7454 49.08 20.8568C48.9392 19.6628 48.5589 19.0747 47.6983 18.7199C47.3261 18.5665 46.773 18.2084 46.469 17.9242C46.165 17.6399 45.6675 17.2794 45.3635 17.1231L44.8107 16.8386L45.3635 16.6252C45.6675 16.5077 47.1185 16.2137 48.5879 15.9714C50.0573 15.7294 51.7155 15.4538 52.2729 15.3593C52.8302 15.2647 53.3484 15.1775 53.4245 15.1655C53.5006 15.1533 53.5626 15.2934 53.5626 15.4766ZM63.7844 15.4105C64.7323 15.6972 65.7875 16.5547 65.5889 16.8775C65.5224 16.9857 65.4879 17.659 65.5123 18.3735C65.5462 19.3649 65.642 19.7637 65.9163 20.057C66.4449 20.6221 66.414 22.0969 65.8614 22.6874L65.4469 23.1304L65.3547 37.6483L65.2626 52.1662L64.6638 52.6368C64.2419 52.9684 64.065 53.2608 64.065 53.6265C64.065 53.912 63.9406 54.2492 63.7886 54.376C63.6366 54.5027 63.5122 54.8064 63.5122 55.0509C63.5122 55.6173 62.6173 56.0426 62.3676 55.5948C62.2823 55.4415 61.9245 55.2618 61.5726 55.1956C61.0182 55.091 60.9327 55.0039 60.9327 54.542C60.9327 54.2094 60.7941 53.922 60.5642 53.7778C60.1192 53.4988 60.0444 52.1416 60.4551 51.7992C61.5042 50.9248 61.6428 48.8173 61.6609 33.4643L61.6738 22.6384L61.119 22.6854L60.5642 22.7324V19.6782V16.6239H61.2227C61.8164 16.6239 61.9118 16.5512 62.19 15.8856C62.5386 15.0521 62.5687 15.043 63.7844 15.4105ZM54.693 37.7747C54.4006 44.573 54.1069 50.1899 54.0402 50.2567C53.9737 50.3235 53.6647 50.1226 53.3537 49.81L52.7881 49.2419L52.5137 45.1931C52.312 42.2141 52.264 39.2487 52.3324 33.9704L52.4254 26.7964L52.9019 25.9798C53.1639 25.5308 53.3784 24.9979 53.3784 24.7956C53.3784 24.5891 53.762 24.0883 54.2536 23.653L55.1288 22.8784L55.1767 24.1462C55.203 24.8437 54.9854 30.9764 54.693 37.7747ZM61.0757 33.017C61.1346 44.1544 60.9487 49.7747 60.4945 50.5974C60.2174 51.0991 60.2031 50.508 60.2919 42.2546C60.4455 27.9904 60.5765 23.2594 60.8157 23.3394C60.9671 23.3901 61.0388 26.0549 61.0757 33.017ZM66.0449 28.5969C66.0118 29.5945 65.9845 28.8286 65.9843 26.8947C65.9841 24.9608 66.0112 24.1446 66.0446 25.0808C66.0779 26.017 66.0781 27.5992 66.0449 28.5969ZM79.279 67.6539C79.3705 67.7304 79.5076 67.876 79.5832 67.9778C79.6616 68.0835 79.7219 68.0239 79.7236 67.839C79.725 67.6589 79.59 67.5151 79.4192 67.5151C79.2504 67.5151 79.1872 67.5775 79.279 67.6539ZM77.2389 73.437C76.8837 73.5904 76.885 73.5965 77.2741 73.6091C77.4961 73.6162 77.729 73.5388 77.7917 73.437C77.9264 73.2181 77.746 73.2181 77.2389 73.437Z" stroke="#F75B00" stroke-width="1.4" mask="url(#path-1-inside-1_231_1889)"/>
</svg>
