<svg width="69" height="81" viewBox="0 0 69 81" fill="none" xmlns="http://www.w3.org/2000/svg">
<path fill-rule="evenodd" clip-rule="evenodd" d="M62.4878 0.279999C62.3243 0.307014 61.969 0.544153 61.6901 0.812653C61.0433 1.43526 60.9214 1.86885 60.9814 3.33504L61.0267 4.44186L60.7257 4.66305C60.3946 4.90619 60.5138 4.9182 58.1989 4.40863C56.5416 4.04376 53.3427 3.95827 52.964 4.26869C52.8924 4.32748 52.8338 4.55251 52.8338 4.76894C52.8338 5.18122 52.9572 5.3726 53.8499 6.34392C54.0991 6.61501 54.2782 6.87679 54.2479 6.92554C54.1714 7.0484 53.6497 7.12086 51.8989 7.25179C50.0181 7.39236 49.1373 7.57371 48.2599 8.00078C47.7122 8.26742 47.5673 8.38769 47.5459 8.59399C47.4948 9.08379 47.6426 9.15873 48.7931 9.2258C50.2807 9.31264 50.695 9.44275 50.997 9.91817C51.3941 10.5429 52.0404 10.7971 53.3716 10.8515C54.4125 10.8941 54.5036 10.9153 54.7404 11.1689C54.88 11.3182 55.0778 11.664 55.1801 11.9372C55.4439 12.6414 55.737 12.838 56.5201 12.8367C57.8784 12.8343 59.6641 11.9785 60.2896 11.0302C60.5346 10.6586 60.7038 10.7022 61.0065 11.2154C61.818 12.5913 61.5525 13.5195 58.9951 18.2483C57.8447 20.3755 55.9591 24.1247 55.9591 24.2848C55.9591 24.4514 55.0877 25.2257 53.8755 26.136C52.2741 27.3387 51.9023 27.6767 51.2803 28.4952C50.5023 29.5191 50.3313 30.6532 50.8032 31.6603C50.9492 31.9719 51.3694 32.5294 51.7652 32.9369C52.5121 33.7056 54.3331 35.1126 55.4111 35.7541C56.2483 36.2522 56.3758 36.4421 56.3758 37.1904C56.3758 37.8456 56.5479 38.2789 56.9261 38.5764C57.0593 38.681 57.2561 38.9152 57.3636 39.0967C57.4711 39.2783 57.7851 39.5489 58.0613 39.6983C58.6209 40.001 58.6818 40.1936 58.3504 40.6123C58.1041 40.9234 57.5855 41.0917 56.8446 41.1008C56.0638 41.1105 55.6487 41.2953 55.2554 41.8089C54.9582 42.1967 54.9117 42.3336 54.9382 42.7405L54.9694 43.2175L55.7334 43.5936C56.1537 43.8005 56.5459 44.0179 56.6051 44.0767C56.7546 44.2252 55.982 45.0271 54.4976 46.264C53.6259 46.9905 52.9832 47.424 52.1536 47.8452C49.4738 49.2058 45.5639 50.1823 40.0201 50.8756C37.1283 51.2373 35.0994 51.3221 34.5769 51.103C34.0891 50.8987 34.079 50.6984 34.5477 50.53C35.0454 50.3512 35.3321 49.9194 35.3321 49.3486C35.3321 48.9967 35.4029 48.7986 35.63 48.5147C35.8849 48.196 35.9382 48.0151 35.9998 47.2609C36.0996 46.0393 36.274 45.4517 36.6923 44.9281C37.1508 44.3539 38.3433 43.4715 39.9294 42.5325C40.617 42.1254 41.245 41.693 41.325 41.5718C41.5437 41.2401 41.726 36.9243 41.7276 32.0386C41.7295 26.3358 41.6543 26.0068 40.0123 24.5335C39.5395 24.1094 38.8065 23.3303 38.3834 22.8023C37.5228 21.7281 37.1905 21.5097 36.0568 21.2728C35.1754 21.0886 35.0739 21.0384 34.6054 20.5546C34.2969 20.2359 34.2626 20.1543 34.3731 20.0027C34.8522 19.3457 34.9611 17.9007 34.6462 16.3786C34.4232 15.3001 34.1978 14.9692 33.4199 14.5783C32.8665 14.3004 32.6662 14.256 31.9404 14.2511C31.2339 14.2464 31.038 14.2841 30.7031 14.4898C30.1416 14.8346 29.9078 15.4151 29.8532 16.5994C29.796 17.8407 29.7558 17.9858 29.3441 18.4385C29.1032 18.7034 28.9593 18.9981 28.876 19.3972C28.7003 20.2383 28.1993 21.1712 27.7875 21.424C26.9942 21.9111 25.661 21.4314 25.1662 20.4808C25.021 20.2016 25.0271 20.1691 25.271 19.9268C25.4135 19.7852 25.5772 19.6694 25.6346 19.6694C25.6921 19.6694 25.8634 19.4586 26.0153 19.2011C26.2901 18.7351 26.291 18.7271 26.1878 17.564C26.0662 16.1915 25.8834 15.7562 25.1647 15.1277C24.284 14.3574 23.2672 14.302 22.5781 14.9868C22.3675 15.1959 22.0569 15.6072 21.8881 15.9006C21.4767 16.6149 21.4603 17.5655 21.8413 18.6147C22.121 19.3853 22.1628 19.7767 21.9978 20.083C21.8983 20.2676 21.8731 20.2645 21.4178 20.0118C20.817 19.6782 20.2669 19.7268 19.7205 20.1617C19.5118 20.3279 19.2299 20.5226 19.094 20.5945C18.3134 21.0074 16.8055 20.3953 16.324 19.4701C16.1571 19.1494 16.1996 19.0483 16.5016 19.0483C16.611 19.0483 16.8376 18.9122 17.0051 18.7458C17.5492 18.2051 17.397 17.4826 16.2883 15.3438C15.9441 14.6797 14.6965 13.7687 14.1331 13.7698C13.8729 13.7704 13.1203 14.2584 12.8518 14.6005C12.2987 15.3054 11.8924 16.5545 11.8924 17.5501C11.8924 18.1739 11.9347 18.3569 12.1529 18.6762C12.2961 18.8859 12.4133 19.0787 12.4133 19.1046C12.4133 19.1306 12.1185 19.1518 11.758 19.1518C11.3977 19.1518 10.8234 19.2267 10.4819 19.3182C10.1404 19.4098 9.69691 19.525 9.49637 19.5742C9.29583 19.6235 8.28365 19.7183 7.2471 19.7851C5.00678 19.9292 4.08544 19.838 3.4309 19.4076L3.0117 19.1319L3.06774 17.3564C3.1041 16.2035 3.20026 15.1815 3.34194 14.4422C3.84553 11.8133 4.09992 11.3403 5.838 9.79955C8.57128 7.37673 8.85808 7.05606 9.60065 5.59266C10.2522 4.30906 10.6681 2.71565 10.4273 2.42717C10.257 2.22337 9.92016 2.24272 9.84005 2.46112C9.65316 2.97028 8.64546 4.61968 7.9955 5.48004C7.07083 6.70413 6.35285 7.40126 5.21795 8.17674C4.19108 8.87842 3.70062 9.34483 3.14671 10.1466C1.71699 12.2162 0.936606 15.258 0.650538 19.8764C0.498232 22.3353 0.421975 28.4041 0.533652 29.1772C0.591366 29.5767 0.800864 30.1951 1.06724 30.7521C1.52406 31.7072 1.7097 31.9141 4.03669 34.0626C4.75061 34.7216 4.78145 34.7711 5.11908 35.7954L5.46672 36.8499L5.06658 38.8951C4.4186 42.2071 4.52622 43.3804 5.56975 44.3813C6.12355 44.9124 7.34242 45.7177 8.35043 46.2186C8.78016 46.432 9.34271 46.7992 9.60055 47.0343C9.85838 47.2695 10.1814 47.534 10.3185 47.6221C10.6803 47.8546 10.4945 48.1209 9.57169 48.6924C9.15415 48.9509 8.67483 49.3053 8.50638 49.48L8.20021 49.7976L6.57443 49.7703C4.1667 49.7299 4.0794 49.8315 4.24702 52.4779C4.36432 54.3278 4.40766 54.401 5.63049 54.8085C6.95707 55.2506 7.16115 55.4118 8.19187 56.8315C9.4997 58.633 10.3108 59.3878 11.6805 60.0785C12.2841 60.383 13.1764 60.761 13.6634 60.9185C14.1505 61.0762 15.1818 61.4724 15.9553 61.7992C17.6684 62.5227 18.7685 62.89 20.0999 63.1832L21.112 63.4059L21.183 64.5941C21.3315 67.0792 22.1674 68.5252 23.4553 68.5252C23.7052 68.5252 23.7967 68.5853 23.8803 68.804C23.9486 68.9821 23.9833 70.9538 23.9766 74.264C23.9709 77.1137 23.9686 79.5269 23.9715 79.6265C23.9764 79.7899 24.1171 79.8077 25.4093 79.8089C26.1972 79.8095 28.7404 79.8799 31.0609 79.9651C35.5732 80.1308 45.3677 80.3191 49.6743 80.3229L52.2967 80.3252L52.4031 79.9888C52.4616 79.8037 52.5647 79.1989 52.6322 78.6446C52.7772 77.4538 52.7082 72.8661 52.5298 71.8375C52.1727 69.7786 51.4591 67.1232 50.5417 64.4392C49.9785 62.7916 49.9244 62.5652 50.0694 62.46C50.1593 62.3946 50.8532 62.2618 51.6115 62.165C54.0662 61.8512 55.5221 61.441 58.5114 60.2207C61.6116 58.9551 62.6666 58.3302 63.9976 56.9711C65.6464 55.2877 66.4165 54.1684 67.1098 52.4478C67.7316 50.9045 68.0143 49.4403 68.1341 47.141C68.2601 44.7197 68.1654 43.5684 67.5257 39.75C66.6254 34.3759 66.553 32.7086 67.1067 30.1023C67.2191 29.5732 67.3118 28.8307 67.3126 28.452C67.3142 27.8088 67.287 27.7278 66.8976 27.2127C66.577 26.7888 66.4809 26.5684 66.4809 26.2568C66.4809 26.0342 66.737 24.589 67.0499 23.0453C67.363 21.5017 67.6685 19.7729 67.729 19.2036C67.9084 17.5149 67.898 15.0837 67.7069 14.0799C67.2871 11.8743 67.3981 10.3305 67.9959 10.0599C68.356 9.89694 68.4998 9.52773 68.4171 8.97945C68.3396 8.46605 68.2168 8.3081 67.4341 7.71551C66.9759 7.36866 66.8632 7.21443 66.7267 6.74771C66.6374 6.44236 66.4782 6.1071 66.3731 6.00266C66.1755 5.8063 65.5511 5.5938 65.1688 5.59287C65.0488 5.59256 64.8636 5.49671 64.7572 5.37995C64.5721 5.17666 64.5715 5.15596 64.7468 4.88829C65.2449 4.12709 65.531 2.83593 65.3976 1.95114C65.2311 0.84857 63.8494 0.054972 62.4878 0.279999ZM63.8728 1.19222C64.3132 1.41993 64.6198 1.82351 64.6776 2.25142C64.7574 2.84245 64.5347 3.75301 64.185 4.26579C63.843 4.76698 63.793 5.23514 64.0321 5.69462C64.2407 6.09519 64.5806 6.3168 64.9867 6.3168C65.6235 6.3168 65.8342 6.47041 66.0103 7.0631C66.1988 7.6974 66.3578 7.90959 67.0018 8.38635C67.8195 8.99166 67.9128 9.2198 67.442 9.46169C67.2156 9.57814 67.1007 9.7716 66.9109 10.3574C66.6965 11.0187 66.6765 11.2251 66.7371 12.1524C66.7747 12.7286 66.9008 13.759 67.0175 14.4422C67.191 15.4578 67.2174 15.9296 67.1631 17.0299C67.0622 19.0728 66.9306 19.9961 66.3161 22.9735C65.9954 24.5272 65.7519 25.98 65.7521 26.3376C65.7525 26.9793 65.7915 27.0717 66.4261 27.9329C66.5963 28.164 66.6649 28.3695 66.6333 28.554C66.6074 28.7057 66.4687 29.4473 66.3252 30.202C65.8468 32.7174 66.0233 35.5537 67.0063 41.1473C67.5666 44.336 67.6292 46.304 67.2546 48.9622C66.9964 50.7952 66.2703 52.8181 65.4282 54.05C64.965 54.7277 63.8491 56.0224 63.0715 56.784C62.5072 57.3367 61.1544 58.2529 60.768 58.3439C60.6156 58.3799 60.4157 58.4738 60.3242 58.5525C60.1106 58.7362 56.986 60.0348 55.6084 60.5125C54.4532 60.9131 52.6452 61.3262 51.5837 61.4322C50.592 61.5313 49.7835 61.6936 49.5952 61.8315C49.3775 61.9909 49.1876 62.3539 49.1876 62.6105C49.1876 62.7237 49.4478 63.5768 49.7659 64.5063C50.5788 66.8818 51.2182 69.1327 51.581 70.8961C52.1085 73.4609 52.2236 76.6978 51.8629 78.8243L51.7399 79.5489L51.0107 79.6301C50.6096 79.6748 49.3204 79.6849 48.1458 79.6525C46.9712 79.6201 43.3666 79.5493 40.1355 79.4951C36.9044 79.441 32.9665 79.3502 31.3847 79.2933C29.8029 79.2365 27.6413 79.1613 26.5813 79.1263L24.654 79.0627V73.7635C24.654 67.6521 24.7044 67.9803 23.7474 67.8495C22.5698 67.6886 22.0084 66.592 21.921 64.2814C21.894 63.5698 21.8416 62.9556 21.8045 62.9165C21.7674 62.8774 21.1042 62.6847 20.3307 62.488C18.813 62.1022 17.2928 61.5703 16.0756 60.999C15.6549 60.8014 14.8197 60.4818 14.2197 60.2886C12.7168 59.8046 11.4743 59.179 10.6829 58.5078C10.0326 57.9562 9.8039 57.6816 8.50669 55.8951C7.79048 54.9087 7.3345 54.5771 6.16022 54.1885C5.00418 53.806 4.97959 53.766 4.93355 52.1899C4.8801 50.3627 4.76311 50.4631 6.94686 50.4631H8.68525L8.96059 50.1496C9.27635 49.7902 9.75098 49.4356 10.4594 49.0301C10.7313 48.8744 11.0242 48.6115 11.1105 48.4458C11.3464 47.9924 11.3123 47.4416 11.033 47.1962C9.77358 46.0896 9.41115 45.8241 8.73713 45.5146C7.30742 44.8584 6.00344 43.8596 5.61184 43.121C5.28535 42.5054 5.32244 41.342 5.73185 39.3522C6.18564 37.1462 6.17814 36.3217 5.6931 35.1187C5.49204 34.6202 5.24597 34.0849 5.14617 33.9294C5.04637 33.7738 4.40214 33.1757 3.71458 32.6003C2.40081 31.5009 1.86242 30.8381 1.45051 29.8132C1.2408 29.2915 1.21851 29.0276 1.18319 26.6562C1.09808 20.9357 1.55792 16.0505 2.42654 13.4471C2.78866 12.3619 3.41549 11.0574 3.76385 10.6641L3.99304 10.4054L3.77219 10.7368C2.85627 12.1109 2.2785 15.2776 2.35424 18.508C2.3706 19.2072 2.40206 19.7894 2.42425 19.8019C3.61915 20.4768 3.46184 20.4431 5.58788 20.4799C7.84663 20.5191 9.56513 20.3806 10.5214 20.0824C11.2302 19.8613 12.7669 19.7946 12.8821 19.9799C12.9927 20.1577 13.3338 20.093 13.4013 19.8815C13.4774 19.6437 13.2887 18.884 13.0802 18.5884C12.9999 18.4745 12.9342 18.2984 12.9342 18.1972C12.9342 18.096 12.8693 18.0132 12.7901 18.0132C12.2455 18.0132 12.8718 15.6851 13.615 14.9467C14.2979 14.2682 15.229 14.9124 16.0609 16.639C16.3521 17.243 16.5763 17.8339 16.5593 17.9519C16.5391 18.0915 16.3566 18.2471 16.0359 18.3981C15.6884 18.5617 15.5236 18.7093 15.4754 18.9002C15.2688 19.7183 16.236 20.9207 17.3759 21.2628C18.3065 21.5421 19.2287 21.4663 19.8102 21.0626C20.7348 20.4206 20.6814 20.4366 21.0446 20.6936C21.225 20.8212 21.3725 20.9923 21.3725 21.0738C21.3725 21.3489 22.0321 21.2548 22.3285 20.9373C22.9173 20.3067 22.9732 19.4752 22.5111 18.2172C22.1259 17.1683 22.1518 16.9266 22.7448 16.0444C23.3847 15.0923 23.8077 14.999 24.5496 15.6461C25.2306 16.2402 25.3585 16.5093 25.4432 17.5251C25.5334 18.6066 25.4585 18.8498 24.9368 19.1701C24.5683 19.3964 24.2894 19.8911 24.2894 20.3186C24.2894 20.5932 24.7609 21.3677 25.1357 21.7087C25.7025 22.2246 27.1113 22.5102 27.8665 22.2627C28.5149 22.05 29.2235 21.018 29.5351 19.8324C29.6225 19.4999 29.8083 19.1061 29.948 18.957C30.3809 18.4952 30.4646 18.2154 30.5452 16.9606C30.6367 15.5374 30.7985 15.2014 31.4919 14.995C32.2105 14.7811 33.3984 15.2252 33.7085 15.8237C33.928 16.2474 34.2102 18.0811 34.1308 18.5693C34.0926 18.8043 33.9254 19.2102 33.7592 19.4715C33.3435 20.1245 33.3675 20.4055 33.8863 20.9649C34.4817 21.6067 34.8524 21.8086 35.6968 21.9509C36.0978 22.0185 36.5803 22.1666 36.7688 22.28C36.9573 22.3934 37.4529 22.9121 37.87 23.4326C38.2871 23.953 38.9878 24.6985 39.427 25.0892C40.8945 26.394 40.9813 26.7123 41.0395 31.0035C41.0777 33.8129 40.947 38.7535 40.7891 40.4756L40.7273 41.1496L39.6705 41.7617C37.6597 42.9265 36.461 43.8398 35.9634 44.5862C35.5722 45.1732 35.4677 45.5391 35.3392 46.7735C35.2572 47.5609 35.1932 47.783 34.9735 48.0425C34.7884 48.2609 34.7071 48.479 34.7071 48.7564C34.7071 49.4054 34.5515 49.6639 34.0066 49.9204C33.5265 50.1462 33.5079 50.1716 33.4775 50.6416C33.4391 51.2316 33.5648 51.4897 34.007 51.73C34.9594 52.2472 41.5409 51.6226 46.3665 50.5567C48.6745 50.0471 50.1253 49.5992 51.725 48.9024C53.2204 48.251 53.9897 47.7619 55.334 46.6077C58.0877 44.2433 58.1696 43.8139 56.0372 42.919C55.8224 42.8288 55.6465 42.7094 55.6465 42.6535C55.6465 42.5976 55.7858 42.3943 55.9561 42.2015C56.2502 41.8688 56.3094 41.8482 57.1436 41.7897C58.536 41.6921 58.9964 41.3967 59.2932 40.4106C59.4695 39.8253 59.2873 39.4718 58.632 39.1277C58.3548 38.982 58.0782 38.7714 58.0173 38.6595C57.9562 38.5476 57.7337 38.2674 57.5226 38.0367C57.1774 37.6595 57.1317 37.5413 57.0681 36.8624C57.0293 36.4471 56.9481 36.0157 56.8877 35.9035C56.8273 35.7913 56.4412 35.4845 56.0299 35.2216C53.694 33.729 51.9828 32.2465 51.4942 31.2923C51.0776 30.4784 51.2632 29.7151 52.1206 28.7165C52.679 28.0662 53.0718 27.7288 54.6382 26.5547C55.3156 26.047 56.0152 25.4671 56.1931 25.2658C56.3709 25.0645 56.7361 24.4333 57.0048 23.8631C57.2735 23.2929 57.6461 22.5003 57.833 22.1018C58.0198 21.7033 58.5836 20.6318 59.086 19.7207C60.4076 17.3237 61.6437 14.8507 61.891 14.1091C62.1431 13.3527 62.1756 11.9718 61.9558 11.3595C61.6448 10.4935 61.1629 10.039 60.564 10.0467C60.1646 10.052 59.8737 10.2396 59.5266 10.7159C59.041 11.3821 56.931 12.3146 56.2875 12.1474C56.1884 12.1216 55.9449 11.7669 55.7467 11.3591C55.243 10.3233 55.0809 10.2303 53.6426 10.1523C52.3358 10.0814 51.8236 9.87956 51.533 9.32134C51.3564 8.98214 50.8434 8.75567 49.8688 8.58705C49.4879 8.52122 49.1925 8.45114 49.2123 8.43137C49.3651 8.27953 50.8017 8.04881 52.3932 7.92046C54.4776 7.75226 54.9761 7.61935 55.0812 7.20346C55.1907 6.77007 55.0646 6.51285 54.3478 5.70559C53.9735 5.284 53.6672 4.89978 53.6672 4.85165C53.6672 4.72951 55.5683 4.74224 56.5506 4.8709C56.9988 4.92969 57.8755 5.09613 58.499 5.24094C59.2322 5.41121 59.9864 5.51058 60.6346 5.52228L61.6367 5.54049L61.6436 3.98787C61.6477 3.05019 61.7013 2.28516 61.7789 2.0562C61.9156 1.65252 62.3351 1.17328 62.6785 1.02857C62.9275 0.923614 63.507 1.0029 63.8728 1.19222ZM5.53766 8.93877C5.53766 8.95771 5.1743 9.29443 4.7303 9.68714C4.20014 10.1559 4.04815 10.2582 4.28755 9.98493C4.70342 9.51013 5.53766 8.81208 5.53766 8.93877ZM1.90691 22.3944C1.66584 23.3454 1.84513 28.7816 2.15672 29.9701C2.25256 30.3357 2.47738 30.7933 2.71407 31.1048C3.1564 31.687 3.93647 32.2802 4.06607 32.133C4.1118 32.081 4.20171 31.7434 4.26577 31.3827C4.3737 30.7758 4.43537 30.671 5.09023 29.983C5.78706 29.2509 6.42285 28.2154 7.84882 25.4908C8.7288 23.8095 8.4669 23.2943 6.73153 23.2928C5.86957 23.2919 5.03668 23.0626 3.89491 22.5116C3.36381 22.2553 2.72615 22.0179 2.4779 21.9841L2.0265 21.9226L1.90691 22.3944ZM3.7626 23.2878C4.89229 23.8158 5.71008 24.0131 6.78778 24.0175C7.10292 24.0188 7.42357 24.0595 7.50035 24.1078C7.66088 24.2089 7.63349 24.2695 6.39264 26.5527C5.40359 28.3723 5.12388 28.7936 4.43402 29.5026C4.1293 29.8158 3.80698 30.2467 3.71781 30.4601C3.62853 30.6736 3.53341 30.8482 3.50633 30.8482C3.32194 30.8482 2.90742 29.9383 2.7722 29.2366C2.5928 28.306 2.4231 22.7746 2.57384 22.7746C2.62374 22.7746 3.15869 23.0055 3.7626 23.2878Z" fill="#F75B00"/>
</svg>
