<svg width="32" height="32" viewBox="0 0 32 32" fill="none" xmlns="http://www.w3.org/2000/svg">
<g clip-path="url(#clip0_146_5860)">
<path d="M23.715 11.5224C26.0497 12.9949 28.91 13.8614 31.9991 13.8614V8.61666C31.4144 8.61686 30.8313 8.56302 30.2593 8.456V12.5843C27.1705 12.5843 24.3106 11.718 21.9753 10.2456V20.9486C21.9753 26.3028 17.0558 30.6429 10.9878 30.6429C8.72372 30.6429 6.61922 30.039 4.87109 29.0032C6.86634 30.8033 9.64884 31.9198 12.7271 31.9198C18.7956 31.9198 23.7152 27.5798 23.7152 22.2253V11.5224H23.715ZM25.8612 6.23112C24.668 5.08099 23.8845 3.59465 23.715 1.95139V1.27686H22.0663C22.4813 3.36535 23.897 5.14963 25.8612 6.23112ZM8.70909 24.8946C8.04239 24.1235 7.68203 23.18 7.68372 22.2099C7.68372 19.7612 9.93384 17.7756 12.71 17.7756C13.2272 17.7754 13.7415 17.8454 14.2346 17.9834V12.6214C13.6583 12.5518 13.0768 12.5221 12.4956 12.533V16.7065C12.0022 16.5685 11.4877 16.4985 10.9702 16.4988C8.19422 16.4988 5.94422 18.4841 5.94422 20.9332C5.94422 22.665 7.06884 24.1642 8.70909 24.8946Z" fill="#FF004F"/>
<path d="M21.9755 10.2455C24.3109 11.7179 27.1705 12.5842 30.2595 12.5842V8.45589C28.5352 8.13181 27.0089 7.33688 25.8612 6.23112C23.8969 5.14952 22.4815 3.36524 22.0665 1.27686H17.7361V22.225C17.7262 24.6672 15.48 26.6446 12.7099 26.6446C11.0776 26.6446 9.62737 25.9581 8.709 24.8945C7.069 24.1642 5.94425 22.6649 5.94425 20.9334C5.94425 18.4845 8.19425 16.4989 10.9702 16.4989C11.5021 16.4989 12.0147 16.572 12.4956 16.7066V12.5331C6.53412 12.6418 1.73975 16.9395 1.73975 22.2252C1.73975 24.8637 2.93362 27.2557 4.87137 29.0034C6.6195 30.039 8.72387 30.6431 10.9881 30.6431C17.0562 30.6431 21.9756 26.3027 21.9756 20.9486L21.9755 10.2455Z" fill="white"/>
<path d="M30.2594 8.45572V7.3397C28.7045 7.34169 27.1804 6.95751 25.8611 6.23106C27.0289 7.35902 28.5665 8.13686 30.2594 8.45595M22.0662 1.27669C22.0267 1.07714 21.9964 0.876257 21.9753 0.674538V0H15.996V20.9484C15.9865 23.3903 13.7403 25.3677 10.97 25.3677C10.1847 25.3688 9.41005 25.2067 8.70875 24.8947C9.62712 25.9581 11.0774 26.6444 12.7096 26.6444C15.4796 26.6444 17.7261 24.6673 17.7359 22.2251V1.2768L22.0662 1.27669ZM12.4958 12.533V11.3447C11.9961 11.2844 11.4924 11.2543 10.9881 11.2544C4.91937 11.2544 0 15.5947 0 20.9484C0 24.305 1.93338 27.2631 4.87138 29.0031C2.93363 27.2555 1.73975 24.8634 1.73975 22.225C1.73975 16.9395 6.534 12.6417 12.4958 12.533Z" fill="#00F2EA"/>
</g>
<defs>
<clipPath id="clip0_146_5860">
<rect width="32" height="32" fill="white"/>
</clipPath>
</defs>
</svg>
