<svg width="196" height="43" viewBox="0 0 196 43" fill="none" xmlns="http://www.w3.org/2000/svg">
<rect x="18.2703" y="39.77" width="4.56753" height="4.56753" transform="rotate(-45 18.2703 39.77)" fill="#F75B00"/>
<rect x="3.22974" y="18.2703" width="4.56753" height="4.56753" transform="rotate(45 3.22974 18.2703)" fill="#F75B00"/>
<rect x="18.2703" y="21.5" width="4.56753" height="4.56753" transform="rotate(-45 18.2703 21.5)" fill="#F75B00"/>
<rect x="18.2703" y="3.22974" width="4.56753" height="4.56753" transform="rotate(-45 18.2703 3.22974)" fill="#F75B00"/>
<rect x="39.7698" y="18.2703" width="4.56753" height="4.56753" transform="rotate(45 39.7698 18.2703)" fill="#F75B00"/>
<path d="M5.30835 14.9973L8.53808 11.7676L14.9975 18.227L11.7678 21.4568L5.30835 14.9973Z" fill="#0671FF"/>
<path d="M11.7678 8.53785L14.9975 5.30812L21.457 11.7676L18.2273 14.9973L11.7678 8.53785Z" fill="#0671FF"/>
<path d="M18.2273 8.53785L21.457 11.7676L11.7678 21.4568L8.53808 18.227L18.2273 8.53785Z" fill="#0671FF"/>
<path d="M5.30835 27.9392L8.53808 31.1689L14.9975 24.7095L11.7678 21.4797L5.30835 27.9392Z" fill="#0671FF"/>
<path d="M11.7678 34.3987L14.9975 37.6284L21.457 31.1689L18.2273 27.9392L11.7678 34.3987Z" fill="#0671FF"/>
<path d="M18.2273 34.3987L21.457 31.1689L11.7678 21.4797L8.53808 24.7095L18.2273 34.3987Z" fill="#0671FF"/>
<path d="M27.9392 5.30811L31.1689 8.53784L24.7095 14.9973L21.4797 11.7676L27.9392 5.30811Z" fill="#0671FF"/>
<path d="M34.3987 11.7676L37.6284 14.9973L31.1689 21.4568L27.9392 18.227L34.3987 11.7676Z" fill="#0671FF"/>
<path d="M34.3987 18.227L31.1689 21.4568L21.4797 11.7676L24.7095 8.53784L34.3987 18.227Z" fill="#0671FF"/>
<path d="M27.9392 37.6284L31.1689 34.3987L24.7095 27.9392L21.4797 31.169L27.9392 37.6284Z" fill="#0671FF"/>
<path d="M34.3987 31.169L37.6284 27.9392L31.1689 21.4798L27.9392 24.7095L34.3987 31.169Z" fill="#0671FF"/>
<path d="M34.3987 24.7095L31.1689 21.4798L21.4797 31.169L24.7095 34.3987L34.3987 24.7095Z" fill="#0671FF"/>
<path d="M53.1172 0H54.6159V1.49866H56.1145V2.99733H57.6132V4.49599H59.1118V5.99466H62.1092V4.49599H63.6078V2.99733H65.1065V1.49866H66.6052V0H68.1038V17.984H65.1065V7.49332H63.6078V8.99199H62.1092V11.9893H59.1118V8.99199H57.6132V7.49332H56.1145V17.984H53.1172V0Z" fill="white"/>
<path d="M71.0894 1.49866H72.5881V0H84.5774V1.49866H86.0761V16.4853H84.5774V17.984H72.5881V16.4853H71.0894V1.49866ZM74.0868 14.9866H83.0788V2.99733H74.0868V14.9866Z" fill="white"/>
<path d="M89.0617 1.49866H90.5604V0H104.048V2.99733H92.059V7.49332H99.5524V10.4906H92.059V14.9866H104.048V17.984H90.5604V16.4853H89.0617V1.49866Z" fill="white"/>
<path d="M117.364 0H118.862V1.49866H120.361V2.99733H121.86V4.49599H123.358V5.99466H126.356V4.49599H127.854V2.99733H129.353V1.49866H130.852V0H132.35V17.984H129.353V7.49332H127.854V8.99199H126.356V11.9893H123.358V8.99199H121.86V7.49332H120.361V17.984H117.364V0Z" fill="white"/>
<path d="M135.336 0H141.331V2.99733H139.832V14.9866H141.331V17.984H135.336V14.9866H136.835V2.99733H135.336V0Z" fill="white"/>
<path d="M144.322 1.49866H145.821V0H159.309V2.99733H147.319V14.9866H159.309V17.984H145.821V16.4853H144.322V1.49866Z" fill="white"/>
<path d="M162.294 0H177.281V2.99733H171.286V17.984H168.289V2.99733H162.294V0Z" fill="white"/>
<path d="M180.267 1.49866H181.765V0H193.755V1.49866H195.253V16.4853H193.755V17.984H181.765V16.4853H180.267V1.49866ZM183.264 14.9866H192.256V2.99733H183.264V14.9866Z" fill="white"/>
<path d="M55.115 30.5701V39.1013H54.0369V30.5701H55.115ZM59.4041 30.5701L56.4685 34.5486L54.7517 36.6169L54.5583 35.4099L55.8181 33.7576L58.115 30.5701H59.4041ZM58.3318 39.1013L55.8181 34.9412L56.4568 34.0447L59.615 39.1013H58.3318ZM61.6833 38.4451L63.0955 32.7615H64.197L62.1052 40.0798C62.0544 40.2361 61.9861 40.4041 61.9001 40.5837C61.8181 40.7673 61.7126 40.9412 61.5837 41.1052C61.4548 41.2693 61.3005 41.4021 61.1208 41.5037C60.9412 41.6091 60.7302 41.6619 60.488 41.6619C60.4138 41.6619 60.3181 41.6501 60.2009 41.6267C60.0876 41.6033 60.0056 41.5837 59.9548 41.5681V40.6892C59.9783 40.6931 60.0154 40.697 60.0662 40.7009C60.1169 40.7087 60.1541 40.7126 60.1775 40.7126C60.3806 40.7126 60.5525 40.6794 60.6931 40.613C60.8376 40.5505 60.9607 40.4431 61.0623 40.2908C61.1638 40.1423 61.2498 39.9373 61.3201 39.6755L61.6833 38.4451ZM60.7693 32.7615L62.0291 37.6833L62.2986 38.8259L61.5603 39.2244L59.6384 32.7615H60.7693ZM66.3298 32.7615V39.1013H65.2986V32.7615H66.3298ZM65.24 31.0798C65.24 30.9041 65.2888 30.7556 65.3865 30.6345C65.4841 30.5134 65.6306 30.4529 65.8259 30.4529C66.0212 30.4529 66.1677 30.5134 66.2654 30.6345C66.3669 30.7556 66.4177 30.9041 66.4177 31.0798C66.4177 31.2478 66.3669 31.3923 66.2654 31.5134C66.1677 31.6306 66.0212 31.6892 65.8259 31.6892C65.6306 31.6892 65.4841 31.6306 65.3865 31.5134C65.2888 31.3923 65.24 31.2478 65.24 31.0798ZM69.6111 38.1228L70.9705 32.7615H72.0251L70.1443 39.1013H69.4587L69.6111 38.1228ZM68.5154 32.7615L69.9333 38.1521L70.0447 39.1013H69.365L67.4607 32.7615H68.5154Z" fill="white"/>
<rect x="79.1875" y="33.5837" width="3.03527" height="3.03527" fill="white"/>
<path d="M93.637 38.1814V39.1013H90.0979V38.1814H93.637ZM90.2913 30.5701V39.1013H89.2131V30.5701H90.2913ZM95.635 38.1228L96.9944 32.7615H98.0491L96.1682 39.1013H95.4827L95.635 38.1228ZM94.5393 32.7615L95.9573 38.1521L96.0686 39.1013H95.3889L93.4846 32.7615H94.5393ZM100.24 32.7615V39.1013H99.2092V32.7615H100.24ZM99.1506 31.0798C99.1506 30.9041 99.1995 30.7556 99.2971 30.6345C99.3948 30.5134 99.5413 30.4529 99.7366 30.4529C99.9319 30.4529 100.078 30.5134 100.176 30.6345C100.278 30.7556 100.328 30.9041 100.328 31.0798C100.328 31.2478 100.278 31.3923 100.176 31.5134C100.078 31.6306 99.9319 31.6892 99.7366 31.6892C99.5413 31.6892 99.3948 31.6306 99.2971 31.5134C99.1995 31.3923 99.1506 31.2478 99.1506 31.0798ZM103.522 38.1228L104.881 32.7615H105.936L104.055 39.1013H103.369L103.522 38.1228ZM102.426 32.7615L103.844 38.1521L103.955 39.1013H103.276L101.371 32.7615H102.426Z" fill="white"/>
<rect x="112.364" y="33.5837" width="3.03527" height="3.03527" fill="white"/>
<path d="M123.468 30.5701V39.1013H122.39V30.5701H123.468ZM127.757 30.5701L124.821 34.5486L123.104 36.6169L122.911 35.4099L124.171 33.7576L126.468 30.5701H127.757ZM126.685 39.1013L124.171 34.9412L124.81 34.0447L127.968 39.1013H126.685ZM129.837 30.1013V39.1013H128.8V30.1013H129.837ZM129.585 35.6912L129.163 35.6736C129.159 35.24 129.208 34.8396 129.31 34.4724C129.415 34.1013 129.563 33.7791 129.755 33.5056C129.95 33.2322 130.183 33.0212 130.452 32.8728C130.722 32.7205 131.021 32.6443 131.349 32.6443C131.606 32.6443 131.841 32.6873 132.052 32.7732C132.263 32.8552 132.442 32.988 132.591 33.1716C132.739 33.3552 132.853 33.5935 132.931 33.8865C133.013 34.1755 133.054 34.5291 133.054 34.947V39.1013H132.017V34.9353C132.017 34.6033 131.979 34.3376 131.905 34.1384C131.835 33.9353 131.726 33.7888 131.577 33.699C131.433 33.6052 131.249 33.5583 131.026 33.5583C130.823 33.5583 130.634 33.615 130.458 33.7283C130.282 33.8416 130.128 33.9978 129.995 34.197C129.866 34.3962 129.765 34.6248 129.69 34.8826C129.62 35.1365 129.585 35.406 129.585 35.6912ZM137.706 38.0173V34.5779C137.706 34.3279 137.667 34.1267 137.589 33.9744C137.515 33.822 137.401 33.7107 137.249 33.6404C137.101 33.5701 136.913 33.5349 136.687 33.5349C136.468 33.5349 136.278 33.5798 136.118 33.6697C135.962 33.7595 135.841 33.8787 135.755 34.0271C135.673 34.1755 135.632 34.3396 135.632 34.5193H134.595C134.595 34.2927 134.644 34.0681 134.741 33.8455C134.843 33.6228 134.987 33.4216 135.175 33.2419C135.362 33.0583 135.587 32.9138 135.849 32.8083C136.114 32.699 136.411 32.6443 136.739 32.6443C137.13 32.6443 137.476 32.7087 137.776 32.8376C138.077 32.9626 138.313 33.1677 138.485 33.4529C138.657 33.738 138.743 34.1169 138.743 34.5896V37.7185C138.743 37.9294 138.759 38.1541 138.79 38.3923C138.825 38.6306 138.874 38.8357 138.937 39.0076V39.1013H137.864C137.813 38.9763 137.774 38.8103 137.747 38.6033C137.72 38.3923 137.706 38.197 137.706 38.0173ZM137.87 35.2576L137.882 36.0193H137.161C136.915 36.0193 136.69 36.0466 136.487 36.1013C136.288 36.156 136.116 36.2361 135.972 36.3416C135.827 36.4431 135.716 36.5701 135.638 36.7224C135.563 36.8748 135.526 37.0486 135.526 37.2439C135.526 37.4978 135.562 37.7009 135.632 37.8533C135.702 38.0017 135.808 38.1091 135.948 38.1755C136.089 38.2419 136.267 38.2751 136.481 38.2751C136.743 38.2751 136.974 38.2146 137.173 38.0935C137.372 37.9724 137.526 37.8259 137.636 37.6541C137.749 37.4822 137.802 37.322 137.794 37.1736L138.022 37.6599C138.007 37.8123 137.956 37.9783 137.87 38.158C137.788 38.3337 137.673 38.5037 137.524 38.6677C137.376 38.8279 137.2 38.9607 136.997 39.0662C136.798 39.1677 136.573 39.2185 136.323 39.2185C135.956 39.2185 135.634 39.1482 135.356 39.0076C135.083 38.8669 134.87 38.6599 134.718 38.3865C134.565 38.113 134.489 37.7751 134.489 37.3728C134.489 37.0681 134.542 36.7869 134.647 36.5291C134.753 36.2712 134.909 36.0486 135.116 35.8611C135.323 35.6697 135.583 35.5212 135.896 35.4158C136.212 35.3103 136.577 35.2576 136.991 35.2576H137.87ZM141.392 33.7576V39.1013H140.354V32.7615H141.356L141.392 33.7576ZM142.968 32.7263L142.974 33.7341C142.888 33.7146 142.81 33.7029 142.739 33.699C142.673 33.6912 142.595 33.6873 142.505 33.6873C142.31 33.6873 142.138 33.7263 141.989 33.8044C141.845 33.8826 141.72 33.9919 141.614 34.1326C141.509 34.2732 141.425 34.4412 141.362 34.6365C141.3 34.8279 141.257 35.0388 141.233 35.2693L140.964 35.4451C140.964 35.0623 140.993 34.7029 141.052 34.3669C141.114 34.031 141.21 33.7341 141.339 33.4763C141.468 33.2146 141.632 33.0115 141.831 32.8669C142.034 32.7185 142.276 32.6443 142.558 32.6443C142.62 32.6443 142.696 32.6541 142.786 32.6736C142.88 32.6892 142.94 32.7068 142.968 32.7263ZM145.054 30.1013V39.1013H144.017V30.1013H145.054ZM148.271 32.7615L146.015 35.7205L144.62 37.3259L144.55 36.1716L145.511 34.8474L147.022 32.7615H148.271ZM147.321 39.1013L145.54 36.0779L146.073 35.1111L148.528 39.1013H147.321ZM150.538 32.7615V39.1013H149.507V32.7615H150.538ZM149.448 31.0798C149.448 30.9041 149.497 30.7556 149.595 30.6345C149.692 30.5134 149.839 30.4529 150.034 30.4529C150.229 30.4529 150.376 30.5134 150.474 30.6345C150.575 30.7556 150.626 30.9041 150.626 31.0798C150.626 31.2478 150.575 31.3923 150.474 31.5134C150.376 31.6306 150.229 31.6892 150.034 31.6892C149.839 31.6892 149.692 31.6306 149.595 31.5134C149.497 31.3923 149.448 31.2478 149.448 31.0798ZM153.819 38.1228L155.179 32.7615H156.233L154.353 39.1013H153.667L153.819 38.1228ZM152.724 32.7615L154.142 38.1521L154.253 39.1013H153.573L151.669 32.7615H152.724Z" fill="white"/>
</svg>
