<svg width="80" height="61" viewBox="0 0 80 61" fill="none" xmlns="http://www.w3.org/2000/svg">
<mask id="path-1-inside-1_231_10075" fill="white">
<path fill-rule="evenodd" clip-rule="evenodd" d="M46.6203 0.404602C46.9822 0.53145 47.8702 0.8875 48.5938 1.19631C49.3175 1.50512 50.6515 1.86292 51.5585 1.99108C52.465 2.11968 53.8144 2.65594 54.5564 3.18345C55.7646 4.04121 55.8769 4.30803 55.6252 5.72523C55.4704 6.59611 54.9507 7.85453 54.4696 8.52201C53.6806 9.61685 53.6618 9.80143 54.274 10.4121C54.6476 10.7843 54.9529 11.4688 54.9529 11.9325C54.9529 13.0702 53.4271 14.5224 52.2119 14.5412C51.2374 14.5565 51.2392 14.5648 52.3216 15.182C52.9246 15.5258 53.9275 15.814 54.5507 15.8228C56.0001 15.8425 56.3405 16.199 55.826 17.1573C55.4923 17.7797 55.7642 18.1603 57.2671 19.1746C58.2855 19.8622 59.6994 20.6785 60.4085 20.9886L61.6983 21.5524L60.8032 22.4447L59.9085 23.3375L61.2238 26.0393C61.9474 27.5256 63.0214 29.1917 63.6104 29.742C64.4871 30.5612 64.5831 30.8604 64.1402 31.3927C63.5135 32.146 63.4617 32.0852 65.5444 33.0387C66.425 33.442 68.1428 33.7718 69.362 33.7718C71.5583 33.7718 71.5807 33.7578 71.8736 32.2002C72.1982 30.4768 74.0914 28.9647 75.9285 28.9621C76.8359 28.9603 76.9179 29.1073 76.6613 30.273C76.3364 31.7488 77.1183 32.2706 79.8882 32.4259C80.3228 32.4504 80.3952 32.7855 80.1562 33.6625C79.9759 34.3243 79.8417 35.4558 79.8575 36.1776L79.5511 36.2648L79.451 36.0039C79.0685 34.7009 78.9361 34.5963 78.3743 35.1562C77.813 35.7165 77.8165 35.9921 78.4037 37.394C79.5536 40.1383 79.3826 40.4576 76.942 40.1225C74.8668 39.8378 74.8036 39.8627 74.5418 41.0656C74.0418 43.3642 73.552 43.7158 72.3802 42.6179C71.1075 41.4251 70.7211 41.4094 69.5453 42.5025C69.0379 42.9736 68.1104 43.4875 67.4841 43.6445C66.5575 43.8764 66.3956 43.799 66.6154 43.2281C66.8614 42.5882 66.7434 42.5856 65.2681 43.2001C63.495 43.9394 63.5376 44.0505 64.5064 41.2077C64.6875 40.6767 64.6177 40.6557 64.1393 41.0984C63.8143 41.3993 62.9745 41.6452 62.2732 41.6452C61.1317 41.6452 61.0264 41.7602 61.2729 42.7387C61.5908 44.0028 61.2409 44.106 59.8748 43.1511C58.4679 42.1687 58.6595 42.6735 60.7637 45.4913C63.2486 48.8195 63.5928 49.0509 66.0764 49.0671C68.534 49.0833 71.2886 50.4174 71.9776 51.926C72.3802 52.8074 72.281 52.9526 71.036 53.3108C69.701 53.6949 69.6502 53.7933 69.7896 55.7227C69.9282 57.6451 69.2585 58.9197 68.6086 57.9696C68.4547 57.7448 67.6767 57.2978 66.8798 56.9759C65.4944 56.4169 65.3677 56.4523 63.9924 57.782L62.5535 59.1725L61.8158 57.2987L61.0777 55.4248L60.2655 56.6596L59.4533 57.8944L58.5552 56.7554C58.0614 56.129 57.5206 54.8107 57.3535 53.8265C57.1452 52.5961 56.7909 51.9684 56.2207 51.8197C55.7646 51.7007 55.3914 51.4387 55.3914 51.2371C55.3914 51.0354 54.7007 50.7629 53.8565 50.6317C53.0123 50.5005 51.6308 50.2861 50.7866 50.1549C49.0149 49.8794 48.835 49.4153 50.2384 48.7399C51.2133 48.271 51.2111 48.2653 50.0476 48.236C49.3999 48.2194 48.3426 48.0064 47.6974 47.7614C46.7813 47.4141 46.6322 47.1884 47.015 46.7278C47.4089 46.2546 47.2891 46.1802 46.4055 46.3486C45.3806 46.5441 45.3249 46.4658 45.5797 45.1952L45.8529 43.8322H43.2027C39.9284 43.8322 38.9496 43.5243 39.6293 42.7076C40.0214 42.2365 39.6693 42.0633 37.8221 41.8188L35.5276 41.5152L36.9287 40.7926L38.3299 40.07L33.3624 37.5773C30.6298 36.206 28.1309 35.084 27.8081 35.084C27.4858 35.084 27.9445 35.8819 28.8273 36.8564C30.771 39.0019 31.3977 40.5118 31.0328 42.1692C30.6894 43.7276 28.9317 45.846 27.2718 46.7025C26.4385 47.132 26.0083 47.6945 26.0083 48.3537C26.0083 49.7153 27.6432 51.4155 28.5747 51.0227C29.8974 50.4655 31.2438 50.2918 32.2498 50.549C33.2795 50.8123 35.6565 52.796 35.6565 53.3917C35.6565 53.5781 35.0079 54.0391 34.2145 54.4161C32.8848 55.0491 32.7857 55.2376 32.9401 56.8521C33.1423 58.9661 32.6011 59.3973 30.867 58.5033C29.2834 57.6866 28.6427 57.6499 28.63 58.376C28.6247 58.6769 28.2598 59.3903 27.8191 59.9616L27.0183 61L25.5373 58.9433C24.1545 57.0227 24.0291 56.9474 23.644 57.8074C23.4173 58.3143 23.0358 58.6634 22.7959 58.5838C21.9648 58.3073 20.7049 55.4222 20.8741 54.183C21.0197 53.1162 20.9149 52.9705 20.1268 53.1429C19.6229 53.2526 18.834 53.4993 18.3735 53.6909C17.6266 54.0019 17.5661 53.893 17.8108 52.6731C18.0288 51.5861 17.9538 51.3569 17.4433 51.5524C16.9289 51.7493 16.8565 51.5074 17.0771 50.3299C17.4319 48.4342 17.435 48.5593 17.014 47.5904C16.7399 46.9592 16.9368 46.5118 17.8218 45.7524C18.4652 45.2004 18.9914 44.504 18.9914 44.2049C18.9914 43.9057 18.3498 44.2797 17.5661 45.0368C16.682 45.8902 14.8918 46.8341 12.8517 47.5213C9.40506 48.683 8.46611 49.4564 8.46611 51.133C8.46611 52.0454 8.66741 52.1434 10.5492 52.1495C11.6952 52.1534 12.8411 52.3008 13.0964 52.4776C13.9866 53.0943 15.0444 54.9695 15.0444 55.9309C15.0444 56.7913 14.8751 56.8722 13.5292 56.6544C12.0395 56.4129 12.0061 56.4418 11.5114 58.4018L11.0084 60.3946L9.24586 59.1213L7.48375 57.8485L6.38078 58.7137C4.909 59.8684 4.64017 59.8111 4.30116 58.2715C3.96698 56.7541 3.25827 56.1583 2.75437 56.971C2.52457 57.3424 2.16496 56.7353 1.71018 55.2087C1.16024 53.3616 1.11726 52.5462 1.50099 51.2677C1.94524 49.7888 1.89086 49.5614 0.840088 48.5133C-0.356293 47.3201 -0.638283 46.4566 0.168221 46.4566C0.466431 46.4566 0.534859 45.9698 0.352859 45.1444C0.0805206 43.9079 0.141914 43.8322 1.4146 43.8322C2.29433 43.8322 2.7649 43.6139 2.7649 43.2054C2.7649 42.5703 3.21135 42.3656 5.66462 41.8752C6.53471 41.7011 7.21009 41.206 7.52848 40.5096C8.28016 38.8637 8.17579 38.6852 6.27334 38.3646C5.30852 38.2019 4.51912 37.8896 4.51912 37.67C4.51912 37.4504 4.68621 37.2711 4.89058 37.2711C5.09494 37.2711 5.71287 36.8813 6.26369 36.4046C7.13247 35.6531 7.17018 35.5018 6.55006 35.2643C5.54533 34.8798 5.66068 34.2508 6.82153 33.7854C7.57761 33.4823 7.62891 33.3834 7.04081 33.362C6.28299 33.3348 5.91065 32.0222 6.66058 32.0222C6.87372 32.0222 7.15 31.6338 7.27455 31.1587C7.45699 30.4628 7.225 30.2441 6.07599 30.0289C3.42799 29.5338 0.394516 25.7257 1.90577 24.794C2.15662 24.6392 2.24215 24.1357 2.09524 23.6747C1.94876 23.2137 2.00797 22.8366 2.22724 22.8366C2.44652 22.8366 2.88068 22.0003 3.19205 20.9776C3.64859 19.4769 3.81656 19.2818 4.06259 19.9646C4.28757 20.5883 4.45817 20.6645 4.71165 20.255C4.98838 19.8089 11.0974 16.7129 11.7018 16.7129C11.7908 16.7129 12.7201 15.9321 13.7665 14.9782L15.6698 13.243L14.7361 11.9837L13.8029 10.7248L14.7528 10.8967C15.4532 11.0235 15.9014 10.7134 16.461 9.7157L17.2192 8.36236L15.6251 7.42412C13.913 6.41677 14.0651 6.18626 16.8276 5.60232C17.8288 5.39018 18.527 4.93702 20.6908 3.09291C21.0535 2.78366 22.9753 2.56277 25.5149 2.53828C29.4084 2.50022 29.8171 2.57808 30.7833 3.54169C31.4459 4.20261 31.9086 5.27514 32.0428 6.46051C32.2836 8.59244 33.0743 8.67248 34.1128 6.66959C34.4518 6.01523 35.2342 5.00569 35.8512 4.42613C36.4954 3.82076 37.0936 2.65375 37.2555 1.68577L37.5374 0L39.3382 0.322807C41.6568 0.739219 42.0971 0.749279 44.2083 0.435221C45.1731 0.291751 46.2585 0.277754 46.6203 0.404602ZM26.4468 6.244C26.4468 6.74089 26.6512 7.52822 26.9008 7.99363C27.3099 8.75603 27.2012 8.83957 25.8035 8.83957C24.5497 8.83957 23.9475 9.1755 22.6669 10.5892C20.8895 12.5514 20.3071 12.7601 20.3071 11.4347C20.3071 10.7392 20.1045 10.5875 19.43 10.7786C18.9476 10.9151 16.3481 10.7668 15.8864 10.8967C15.0956 11.1193 16.9364 11.5616 17.9525 12.575C18.5458 13.1668 19.219 13.6511 19.4488 13.6511C20.3474 13.6511 25.4382 10.9842 26.995 9.69733C28.169 8.72716 28.6396 7.99319 28.6396 7.13106C28.6396 5.71561 28.3484 5.34031 27.2507 5.34031C26.7306 5.34031 26.4468 5.65918 26.4468 6.244ZM49.6902 9.7402C49.6902 9.96677 50.0523 11.6701 50.5347 11.6701C54.2414 12.2932 54.2724 9.53106 53.4071 9.22137C52.7436 8.9843 49.6902 9.18031 49.6902 9.7402ZM25.4176 14.4926C23.9256 15.2327 22.4613 15.8381 22.1639 15.8381C21.5149 15.8381 21.4464 16.5528 22.0591 16.9303C22.299 17.0781 22.7143 17.6074 22.9823 18.1069C23.4419 18.9638 23.384 18.9988 21.9473 18.7298C20.2154 18.4057 18.9914 18.7394 18.9914 19.5351C18.9914 20.2577 17.7301 21.3591 16.2671 21.9141C15.1102 22.3528 15.0922 22.3354 15.5852 21.2571C16.1285 20.0674 15.5891 19.3579 14.13 19.3439C13.2613 19.3356 7.19956 22.2422 6.1637 23.1642C4.93092 24.2613 5.19406 25.7086 6.7426 26.3486C7.95827 26.8507 8.39288 26.7711 11.2378 25.5254C16.2386 23.3344 20.0488 22.7041 26.5319 22.9941L32.0994 23.243L32.7458 21.9509C33.101 21.2401 33.5168 20.0914 33.6694 19.3982C33.9259 18.2342 33.8624 18.1542 32.8357 18.3497C32.2244 18.4665 31.3981 18.4367 30.9995 18.2845C30.3403 18.0321 30.3368 17.9381 30.9604 17.2505C31.806 16.3184 33.4637 12.5313 33.4637 11.5314C33.4637 11.1272 32.5853 8.07238 32.0428 7.82043C31.6098 8.64557 31.2595 10.1046 29.8106 11.5134C28.8865 12.4119 26.9095 13.7525 25.4176 14.4926ZM32.5866 23.2714C32.5866 23.5102 32.976 23.6467 33.4523 23.5741C34.8259 23.365 35.0434 22.8366 33.7562 22.8366C33.1129 22.8366 32.5866 23.0321 32.5866 23.2714Z"/>
</mask>
<path fill-rule="evenodd" clip-rule="evenodd" d="M46.6203 0.404602C46.9822 0.53145 47.8702 0.8875 48.5938 1.19631C49.3175 1.50512 50.6515 1.86292 51.5585 1.99108C52.465 2.11968 53.8144 2.65594 54.5564 3.18345C55.7646 4.04121 55.8769 4.30803 55.6252 5.72523C55.4704 6.59611 54.9507 7.85453 54.4696 8.52201C53.6806 9.61685 53.6618 9.80143 54.274 10.4121C54.6476 10.7843 54.9529 11.4688 54.9529 11.9325C54.9529 13.0702 53.4271 14.5224 52.2119 14.5412C51.2374 14.5565 51.2392 14.5648 52.3216 15.182C52.9246 15.5258 53.9275 15.814 54.5507 15.8228C56.0001 15.8425 56.3405 16.199 55.826 17.1573C55.4923 17.7797 55.7642 18.1603 57.2671 19.1746C58.2855 19.8622 59.6994 20.6785 60.4085 20.9886L61.6983 21.5524L60.8032 22.4447L59.9085 23.3375L61.2238 26.0393C61.9474 27.5256 63.0214 29.1917 63.6104 29.742C64.4871 30.5612 64.5831 30.8604 64.1402 31.3927C63.5135 32.146 63.4617 32.0852 65.5444 33.0387C66.425 33.442 68.1428 33.7718 69.362 33.7718C71.5583 33.7718 71.5807 33.7578 71.8736 32.2002C72.1982 30.4768 74.0914 28.9647 75.9285 28.9621C76.8359 28.9603 76.9179 29.1073 76.6613 30.273C76.3364 31.7488 77.1183 32.2706 79.8882 32.4259C80.3228 32.4504 80.3952 32.7855 80.1562 33.6625C79.9759 34.3243 79.8417 35.4558 79.8575 36.1776L79.5511 36.2648L79.451 36.0039C79.0685 34.7009 78.9361 34.5963 78.3743 35.1562C77.813 35.7165 77.8165 35.9921 78.4037 37.394C79.5536 40.1383 79.3826 40.4576 76.942 40.1225C74.8668 39.8378 74.8036 39.8627 74.5418 41.0656C74.0418 43.3642 73.552 43.7158 72.3802 42.6179C71.1075 41.4251 70.7211 41.4094 69.5453 42.5025C69.0379 42.9736 68.1104 43.4875 67.4841 43.6445C66.5575 43.8764 66.3956 43.799 66.6154 43.2281C66.8614 42.5882 66.7434 42.5856 65.2681 43.2001C63.495 43.9394 63.5376 44.0505 64.5064 41.2077C64.6875 40.6767 64.6177 40.6557 64.1393 41.0984C63.8143 41.3993 62.9745 41.6452 62.2732 41.6452C61.1317 41.6452 61.0264 41.7602 61.2729 42.7387C61.5908 44.0028 61.2409 44.106 59.8748 43.1511C58.4679 42.1687 58.6595 42.6735 60.7637 45.4913C63.2486 48.8195 63.5928 49.0509 66.0764 49.0671C68.534 49.0833 71.2886 50.4174 71.9776 51.926C72.3802 52.8074 72.281 52.9526 71.036 53.3108C69.701 53.6949 69.6502 53.7933 69.7896 55.7227C69.9282 57.6451 69.2585 58.9197 68.6086 57.9696C68.4547 57.7448 67.6767 57.2978 66.8798 56.9759C65.4944 56.4169 65.3677 56.4523 63.9924 57.782L62.5535 59.1725L61.8158 57.2987L61.0777 55.4248L60.2655 56.6596L59.4533 57.8944L58.5552 56.7554C58.0614 56.129 57.5206 54.8107 57.3535 53.8265C57.1452 52.5961 56.7909 51.9684 56.2207 51.8197C55.7646 51.7007 55.3914 51.4387 55.3914 51.2371C55.3914 51.0354 54.7007 50.7629 53.8565 50.6317C53.0123 50.5005 51.6308 50.2861 50.7866 50.1549C49.0149 49.8794 48.835 49.4153 50.2384 48.7399C51.2133 48.271 51.2111 48.2653 50.0476 48.236C49.3999 48.2194 48.3426 48.0064 47.6974 47.7614C46.7813 47.4141 46.6322 47.1884 47.015 46.7278C47.4089 46.2546 47.2891 46.1802 46.4055 46.3486C45.3806 46.5441 45.3249 46.4658 45.5797 45.1952L45.8529 43.8322H43.2027C39.9284 43.8322 38.9496 43.5243 39.6293 42.7076C40.0214 42.2365 39.6693 42.0633 37.8221 41.8188L35.5276 41.5152L36.9287 40.7926L38.3299 40.07L33.3624 37.5773C30.6298 36.206 28.1309 35.084 27.8081 35.084C27.4858 35.084 27.9445 35.8819 28.8273 36.8564C30.771 39.0019 31.3977 40.5118 31.0328 42.1692C30.6894 43.7276 28.9317 45.846 27.2718 46.7025C26.4385 47.132 26.0083 47.6945 26.0083 48.3537C26.0083 49.7153 27.6432 51.4155 28.5747 51.0227C29.8974 50.4655 31.2438 50.2918 32.2498 50.549C33.2795 50.8123 35.6565 52.796 35.6565 53.3917C35.6565 53.5781 35.0079 54.0391 34.2145 54.4161C32.8848 55.0491 32.7857 55.2376 32.9401 56.8521C33.1423 58.9661 32.6011 59.3973 30.867 58.5033C29.2834 57.6866 28.6427 57.6499 28.63 58.376C28.6247 58.6769 28.2598 59.3903 27.8191 59.9616L27.0183 61L25.5373 58.9433C24.1545 57.0227 24.0291 56.9474 23.644 57.8074C23.4173 58.3143 23.0358 58.6634 22.7959 58.5838C21.9648 58.3073 20.7049 55.4222 20.8741 54.183C21.0197 53.1162 20.9149 52.9705 20.1268 53.1429C19.6229 53.2526 18.834 53.4993 18.3735 53.6909C17.6266 54.0019 17.5661 53.893 17.8108 52.6731C18.0288 51.5861 17.9538 51.3569 17.4433 51.5524C16.9289 51.7493 16.8565 51.5074 17.0771 50.3299C17.4319 48.4342 17.435 48.5593 17.014 47.5904C16.7399 46.9592 16.9368 46.5118 17.8218 45.7524C18.4652 45.2004 18.9914 44.504 18.9914 44.2049C18.9914 43.9057 18.3498 44.2797 17.5661 45.0368C16.682 45.8902 14.8918 46.8341 12.8517 47.5213C9.40506 48.683 8.46611 49.4564 8.46611 51.133C8.46611 52.0454 8.66741 52.1434 10.5492 52.1495C11.6952 52.1534 12.8411 52.3008 13.0964 52.4776C13.9866 53.0943 15.0444 54.9695 15.0444 55.9309C15.0444 56.7913 14.8751 56.8722 13.5292 56.6544C12.0395 56.4129 12.0061 56.4418 11.5114 58.4018L11.0084 60.3946L9.24586 59.1213L7.48375 57.8485L6.38078 58.7137C4.909 59.8684 4.64017 59.8111 4.30116 58.2715C3.96698 56.7541 3.25827 56.1583 2.75437 56.971C2.52457 57.3424 2.16496 56.7353 1.71018 55.2087C1.16024 53.3616 1.11726 52.5462 1.50099 51.2677C1.94524 49.7888 1.89086 49.5614 0.840088 48.5133C-0.356293 47.3201 -0.638283 46.4566 0.168221 46.4566C0.466431 46.4566 0.534859 45.9698 0.352859 45.1444C0.0805206 43.9079 0.141914 43.8322 1.4146 43.8322C2.29433 43.8322 2.7649 43.6139 2.7649 43.2054C2.7649 42.5703 3.21135 42.3656 5.66462 41.8752C6.53471 41.7011 7.21009 41.206 7.52848 40.5096C8.28016 38.8637 8.17579 38.6852 6.27334 38.3646C5.30852 38.2019 4.51912 37.8896 4.51912 37.67C4.51912 37.4504 4.68621 37.2711 4.89058 37.2711C5.09494 37.2711 5.71287 36.8813 6.26369 36.4046C7.13247 35.6531 7.17018 35.5018 6.55006 35.2643C5.54533 34.8798 5.66068 34.2508 6.82153 33.7854C7.57761 33.4823 7.62891 33.3834 7.04081 33.362C6.28299 33.3348 5.91065 32.0222 6.66058 32.0222C6.87372 32.0222 7.15 31.6338 7.27455 31.1587C7.45699 30.4628 7.225 30.2441 6.07599 30.0289C3.42799 29.5338 0.394516 25.7257 1.90577 24.794C2.15662 24.6392 2.24215 24.1357 2.09524 23.6747C1.94876 23.2137 2.00797 22.8366 2.22724 22.8366C2.44652 22.8366 2.88068 22.0003 3.19205 20.9776C3.64859 19.4769 3.81656 19.2818 4.06259 19.9646C4.28757 20.5883 4.45817 20.6645 4.71165 20.255C4.98838 19.8089 11.0974 16.7129 11.7018 16.7129C11.7908 16.7129 12.7201 15.9321 13.7665 14.9782L15.6698 13.243L14.7361 11.9837L13.8029 10.7248L14.7528 10.8967C15.4532 11.0235 15.9014 10.7134 16.461 9.7157L17.2192 8.36236L15.6251 7.42412C13.913 6.41677 14.0651 6.18626 16.8276 5.60232C17.8288 5.39018 18.527 4.93702 20.6908 3.09291C21.0535 2.78366 22.9753 2.56277 25.5149 2.53828C29.4084 2.50022 29.8171 2.57808 30.7833 3.54169C31.4459 4.20261 31.9086 5.27514 32.0428 6.46051C32.2836 8.59244 33.0743 8.67248 34.1128 6.66959C34.4518 6.01523 35.2342 5.00569 35.8512 4.42613C36.4954 3.82076 37.0936 2.65375 37.2555 1.68577L37.5374 0L39.3382 0.322807C41.6568 0.739219 42.0971 0.749279 44.2083 0.435221C45.1731 0.291751 46.2585 0.277754 46.6203 0.404602ZM26.4468 6.244C26.4468 6.74089 26.6512 7.52822 26.9008 7.99363C27.3099 8.75603 27.2012 8.83957 25.8035 8.83957C24.5497 8.83957 23.9475 9.1755 22.6669 10.5892C20.8895 12.5514 20.3071 12.7601 20.3071 11.4347C20.3071 10.7392 20.1045 10.5875 19.43 10.7786C18.9476 10.9151 16.3481 10.7668 15.8864 10.8967C15.0956 11.1193 16.9364 11.5616 17.9525 12.575C18.5458 13.1668 19.219 13.6511 19.4488 13.6511C20.3474 13.6511 25.4382 10.9842 26.995 9.69733C28.169 8.72716 28.6396 7.99319 28.6396 7.13106C28.6396 5.71561 28.3484 5.34031 27.2507 5.34031C26.7306 5.34031 26.4468 5.65918 26.4468 6.244ZM49.6902 9.7402C49.6902 9.96677 50.0523 11.6701 50.5347 11.6701C54.2414 12.2932 54.2724 9.53106 53.4071 9.22137C52.7436 8.9843 49.6902 9.18031 49.6902 9.7402ZM25.4176 14.4926C23.9256 15.2327 22.4613 15.8381 22.1639 15.8381C21.5149 15.8381 21.4464 16.5528 22.0591 16.9303C22.299 17.0781 22.7143 17.6074 22.9823 18.1069C23.4419 18.9638 23.384 18.9988 21.9473 18.7298C20.2154 18.4057 18.9914 18.7394 18.9914 19.5351C18.9914 20.2577 17.7301 21.3591 16.2671 21.9141C15.1102 22.3528 15.0922 22.3354 15.5852 21.2571C16.1285 20.0674 15.5891 19.3579 14.13 19.3439C13.2613 19.3356 7.19956 22.2422 6.1637 23.1642C4.93092 24.2613 5.19406 25.7086 6.7426 26.3486C7.95827 26.8507 8.39288 26.7711 11.2378 25.5254C16.2386 23.3344 20.0488 22.7041 26.5319 22.9941L32.0994 23.243L32.7458 21.9509C33.101 21.2401 33.5168 20.0914 33.6694 19.3982C33.9259 18.2342 33.8624 18.1542 32.8357 18.3497C32.2244 18.4665 31.3981 18.4367 30.9995 18.2845C30.3403 18.0321 30.3368 17.9381 30.9604 17.2505C31.806 16.3184 33.4637 12.5313 33.4637 11.5314C33.4637 11.1272 32.5853 8.07238 32.0428 7.82043C31.6098 8.64557 31.2595 10.1046 29.8106 11.5134C28.8865 12.4119 26.9095 13.7525 25.4176 14.4926ZM32.5866 23.2714C32.5866 23.5102 32.976 23.6467 33.4523 23.5741C34.8259 23.365 35.0434 22.8366 33.7562 22.8366C33.1129 22.8366 32.5866 23.0321 32.5866 23.2714Z" stroke="#F75B00" stroke-width="1.4" mask="url(#path-1-inside-1_231_10075)"/>
</svg>
