<svg width="16" height="17" viewBox="0 0 16 17" fill="none" xmlns="http://www.w3.org/2000/svg">
<path d="M15.9519 15.3497L10.758 10.1557C11.564 9.11372 11.9999 7.83972 11.9999 6.49973C11.9999 4.89574 11.374 3.39174 10.242 2.25775C9.10996 1.12375 7.60197 0.499756 5.99997 0.499756C4.39798 0.499756 2.88999 1.12575 1.75799 2.25775C0.623997 3.38974 0 4.89574 0 6.49973C0 8.10172 0.625997 9.60972 1.75799 10.7417C2.88999 11.8757 4.39598 12.4997 5.99997 12.4997C7.33997 12.4997 8.61196 12.0637 9.65396 11.2597L14.8479 16.4517C14.8632 16.4669 14.8812 16.479 14.9012 16.4873C14.9211 16.4955 14.9424 16.4998 14.9639 16.4998C14.9855 16.4998 15.0068 16.4955 15.0267 16.4873C15.0466 16.479 15.0647 16.4669 15.0799 16.4517L15.9519 15.5817C15.9672 15.5665 15.9793 15.5484 15.9875 15.5285C15.9958 15.5086 16 15.4872 16 15.4657C16 15.4441 15.9958 15.4228 15.9875 15.4029C15.9793 15.383 15.9672 15.3649 15.9519 15.3497ZM9.16796 9.66772C8.31996 10.5137 7.19597 10.9797 5.99997 10.9797C4.80398 10.9797 3.67998 10.5137 2.83199 9.66772C1.98599 8.81972 1.51999 7.69572 1.51999 6.49973C1.51999 5.30374 1.98599 4.17774 2.83199 3.33174C3.67998 2.48575 4.80398 2.01975 5.99997 2.01975C7.19597 2.01975 8.32196 2.48375 9.16796 3.33174C10.014 4.17974 10.48 5.30374 10.48 6.49973C10.48 7.69572 10.014 8.82172 9.16796 9.66772Z" fill="black" fill-opacity="0.85"/>
</svg>
